%TF.GenerationSoftware,KiCad,Pcbnew,7.0.6-7.0.6~ubuntu22.04.1*%
%TF.CreationDate,2023-07-18T23:37:18-07:00*%
%TF.ProjectId,NHz_F4_FC,4e487a5f-4634-45f4-9643-2e6b69636164,rev?*%
%TF.SameCoordinates,Original*%
%TF.FileFunction,Copper,L1,Top*%
%TF.FilePolarity,Positive*%
%FSLAX46Y46*%
G04 Gerber Fmt 4.6, Leading zero omitted, Abs format (unit mm)*
G04 Created by KiCad (PCBNEW 7.0.6-7.0.6~ubuntu22.04.1) date 2023-07-18 23:37:18*
%MOMM*%
%LPD*%
G01*
G04 APERTURE LIST*
G04 Aperture macros list*
%AMRoundRect*
0 Rectangle with rounded corners*
0 $1 Rounding radius*
0 $2 $3 $4 $5 $6 $7 $8 $9 X,Y pos of 4 corners*
0 Add a 4 corners polygon primitive as box body*
4,1,4,$2,$3,$4,$5,$6,$7,$8,$9,$2,$3,0*
0 Add four circle primitives for the rounded corners*
1,1,$1+$1,$2,$3*
1,1,$1+$1,$4,$5*
1,1,$1+$1,$6,$7*
1,1,$1+$1,$8,$9*
0 Add four rect primitives between the rounded corners*
20,1,$1+$1,$2,$3,$4,$5,0*
20,1,$1+$1,$4,$5,$6,$7,0*
20,1,$1+$1,$6,$7,$8,$9,0*
20,1,$1+$1,$8,$9,$2,$3,0*%
%AMRotRect*
0 Rectangle, with rotation*
0 The origin of the aperture is its center*
0 $1 length*
0 $2 width*
0 $3 Rotation angle, in degrees counterclockwise*
0 Add horizontal line*
21,1,$1,$2,0,0,$3*%
G04 Aperture macros list end*
%TA.AperFunction,SMDPad,CuDef*%
%ADD10RoundRect,0.150000X-0.512500X-0.150000X0.512500X-0.150000X0.512500X0.150000X-0.512500X0.150000X0*%
%TD*%
%TA.AperFunction,SMDPad,CuDef*%
%ADD11RoundRect,0.087500X-0.187500X-0.087500X0.187500X-0.087500X0.187500X0.087500X-0.187500X0.087500X0*%
%TD*%
%TA.AperFunction,SMDPad,CuDef*%
%ADD12RoundRect,0.087500X-0.087500X-0.187500X0.087500X-0.187500X0.087500X0.187500X-0.087500X0.187500X0*%
%TD*%
%TA.AperFunction,SMDPad,CuDef*%
%ADD13RoundRect,0.155000X-0.212500X-0.155000X0.212500X-0.155000X0.212500X0.155000X-0.212500X0.155000X0*%
%TD*%
%TA.AperFunction,SMDPad,CuDef*%
%ADD14RoundRect,0.125000X-1.125000X-1.125000X1.125000X-1.125000X1.125000X1.125000X-1.125000X1.125000X0*%
%TD*%
%TA.AperFunction,SMDPad,CuDef*%
%ADD15RoundRect,0.160000X0.160000X-0.197500X0.160000X0.197500X-0.160000X0.197500X-0.160000X-0.197500X0*%
%TD*%
%TA.AperFunction,SMDPad,CuDef*%
%ADD16R,1.150000X3.600000*%
%TD*%
%TA.AperFunction,SMDPad,CuDef*%
%ADD17RoundRect,0.155000X0.155000X-0.212500X0.155000X0.212500X-0.155000X0.212500X-0.155000X-0.212500X0*%
%TD*%
%TA.AperFunction,SMDPad,CuDef*%
%ADD18RoundRect,0.160000X0.252791X-0.026517X-0.026517X0.252791X-0.252791X0.026517X0.026517X-0.252791X0*%
%TD*%
%TA.AperFunction,SMDPad,CuDef*%
%ADD19RoundRect,0.147500X-0.172500X0.147500X-0.172500X-0.147500X0.172500X-0.147500X0.172500X0.147500X0*%
%TD*%
%TA.AperFunction,SMDPad,CuDef*%
%ADD20RoundRect,0.155000X-0.259862X0.040659X0.040659X-0.259862X0.259862X-0.040659X-0.040659X0.259862X0*%
%TD*%
%TA.AperFunction,SMDPad,CuDef*%
%ADD21RoundRect,0.250000X0.475000X-0.250000X0.475000X0.250000X-0.475000X0.250000X-0.475000X-0.250000X0*%
%TD*%
%TA.AperFunction,SMDPad,CuDef*%
%ADD22RoundRect,0.160000X-0.160000X0.197500X-0.160000X-0.197500X0.160000X-0.197500X0.160000X0.197500X0*%
%TD*%
%TA.AperFunction,SMDPad,CuDef*%
%ADD23RoundRect,0.250000X0.650000X-1.000000X0.650000X1.000000X-0.650000X1.000000X-0.650000X-1.000000X0*%
%TD*%
%TA.AperFunction,SMDPad,CuDef*%
%ADD24RoundRect,0.155000X0.040659X0.259862X-0.259862X-0.040659X-0.040659X-0.259862X0.259862X0.040659X0*%
%TD*%
%TA.AperFunction,SMDPad,CuDef*%
%ADD25RoundRect,0.250000X-0.475000X0.250000X-0.475000X-0.250000X0.475000X-0.250000X0.475000X0.250000X0*%
%TD*%
%TA.AperFunction,SMDPad,CuDef*%
%ADD26RoundRect,0.155000X0.212500X0.155000X-0.212500X0.155000X-0.212500X-0.155000X0.212500X-0.155000X0*%
%TD*%
%TA.AperFunction,SMDPad,CuDef*%
%ADD27RotRect,0.500000X0.350000X45.000000*%
%TD*%
%TA.AperFunction,SMDPad,CuDef*%
%ADD28RoundRect,0.160000X-0.197500X-0.160000X0.197500X-0.160000X0.197500X0.160000X-0.197500X0.160000X0*%
%TD*%
%TA.AperFunction,SMDPad,CuDef*%
%ADD29RoundRect,0.225000X-0.225000X-0.250000X0.225000X-0.250000X0.225000X0.250000X-0.225000X0.250000X0*%
%TD*%
%TA.AperFunction,SMDPad,CuDef*%
%ADD30RoundRect,0.160000X0.197500X0.160000X-0.197500X0.160000X-0.197500X-0.160000X0.197500X-0.160000X0*%
%TD*%
%TA.AperFunction,SMDPad,CuDef*%
%ADD31RotRect,0.400000X1.900000X45.000000*%
%TD*%
%TA.AperFunction,SMDPad,CuDef*%
%ADD32RoundRect,0.155000X0.259862X-0.040659X-0.040659X0.259862X-0.259862X0.040659X0.040659X-0.259862X0*%
%TD*%
%TA.AperFunction,SMDPad,CuDef*%
%ADD33RoundRect,0.150000X0.150000X0.625000X-0.150000X0.625000X-0.150000X-0.625000X0.150000X-0.625000X0*%
%TD*%
%TA.AperFunction,SMDPad,CuDef*%
%ADD34RoundRect,0.250000X0.350000X0.650000X-0.350000X0.650000X-0.350000X-0.650000X0.350000X-0.650000X0*%
%TD*%
%TA.AperFunction,SMDPad,CuDef*%
%ADD35RoundRect,0.150000X-0.825000X-0.150000X0.825000X-0.150000X0.825000X0.150000X-0.825000X0.150000X0*%
%TD*%
%TA.AperFunction,SMDPad,CuDef*%
%ADD36RoundRect,0.147500X-0.017678X0.226274X-0.226274X0.017678X0.017678X-0.226274X0.226274X-0.017678X0*%
%TD*%
%TA.AperFunction,SMDPad,CuDef*%
%ADD37RoundRect,0.075000X0.548008X-0.441942X-0.441942X0.548008X-0.548008X0.441942X0.441942X-0.548008X0*%
%TD*%
%TA.AperFunction,SMDPad,CuDef*%
%ADD38RoundRect,0.075000X0.548008X0.441942X0.441942X0.548008X-0.548008X-0.441942X-0.441942X-0.548008X0*%
%TD*%
%TA.AperFunction,SMDPad,CuDef*%
%ADD39RoundRect,0.155000X-0.040659X-0.259862X0.259862X0.040659X0.040659X0.259862X-0.259862X-0.040659X0*%
%TD*%
%TA.AperFunction,SMDPad,CuDef*%
%ADD40RoundRect,0.155000X-0.155000X0.212500X-0.155000X-0.212500X0.155000X-0.212500X0.155000X0.212500X0*%
%TD*%
%TA.AperFunction,SMDPad,CuDef*%
%ADD41RotRect,0.300000X0.800000X225.000000*%
%TD*%
%TA.AperFunction,SMDPad,CuDef*%
%ADD42RotRect,0.300000X0.800000X315.000000*%
%TD*%
%TA.AperFunction,SMDPad,CuDef*%
%ADD43RotRect,0.300000X0.800000X45.000000*%
%TD*%
%TA.AperFunction,SMDPad,CuDef*%
%ADD44RotRect,0.300000X0.800000X135.000000*%
%TD*%
%TA.AperFunction,SMDPad,CuDef*%
%ADD45R,0.350000X0.375000*%
%TD*%
%TA.AperFunction,SMDPad,CuDef*%
%ADD46R,0.375000X0.350000*%
%TD*%
%TA.AperFunction,ComponentPad*%
%ADD47O,1.700000X1.000000*%
%TD*%
%TA.AperFunction,ComponentPad*%
%ADD48O,1.700000X0.850000*%
%TD*%
%TA.AperFunction,ViaPad*%
%ADD49C,0.500000*%
%TD*%
%TA.AperFunction,Conductor*%
%ADD50C,0.127000*%
%TD*%
%TA.AperFunction,Conductor*%
%ADD51C,0.500000*%
%TD*%
%TA.AperFunction,Conductor*%
%ADD52C,0.090000*%
%TD*%
%TA.AperFunction,Conductor*%
%ADD53C,0.200000*%
%TD*%
G04 APERTURE END LIST*
D10*
%TO.P,U6,1,VIN*%
%TO.N,VBUS*%
X114362500Y-48550000D03*
%TO.P,U6,2,GND*%
%TO.N,GND*%
X114362500Y-49500000D03*
%TO.P,U6,3,CE*%
%TO.N,VBUS*%
X114362500Y-50450000D03*
%TO.P,U6,4,NC*%
%TO.N,unconnected-(U6-NC-Pad4)*%
X116637500Y-50450000D03*
%TO.P,U6,5,VOUT*%
%TO.N,+3.3V*%
X116637500Y-48550000D03*
%TD*%
D11*
%TO.P,U4,1,VDD_IO*%
%TO.N,+3.3V*%
X139775000Y-52600000D03*
%TO.P,U4,2,NC*%
%TO.N,unconnected-(U4-NC-Pad2)*%
X139775000Y-53100000D03*
%TO.P,U4,3,NC*%
%TO.N,unconnected-(U4-NC-Pad3)*%
X139775000Y-53600000D03*
%TO.P,U4,4,SCL/SPC*%
%TO.N,/SCL1*%
X139775000Y-54100000D03*
%TO.P,U4,5,GND*%
%TO.N,GND*%
X139775000Y-54600000D03*
D12*
%TO.P,U4,6,SDA/SDI/SDO*%
%TO.N,/SDA1*%
X140500000Y-54825000D03*
%TO.P,U4,7,SDO/SA0*%
%TO.N,GND*%
X141000000Y-54825000D03*
%TO.P,U4,8,CS*%
%TO.N,unconnected-(U4-CS-Pad8)*%
X141500000Y-54825000D03*
D11*
%TO.P,U4,9,INT2*%
%TO.N,/LIS3DH_INT_PIN*%
X142225000Y-54600000D03*
%TO.P,U4,10,GND*%
%TO.N,GND*%
X142225000Y-54100000D03*
%TO.P,U4,11,INT1*%
%TO.N,unconnected-(U4-INT1-Pad11)*%
X142225000Y-53600000D03*
%TO.P,U4,12,GND*%
%TO.N,GND*%
X142225000Y-53100000D03*
%TO.P,U4,13,ADC3*%
%TO.N,unconnected-(U4-ADC3-Pad13)*%
X142225000Y-52600000D03*
D12*
%TO.P,U4,14,VDD*%
%TO.N,+3.3V*%
X141500000Y-52375000D03*
%TO.P,U4,15,ADC2*%
%TO.N,unconnected-(U4-ADC2-Pad15)*%
X141000000Y-52375000D03*
%TO.P,U4,16,ADC1*%
%TO.N,unconnected-(U4-ADC1-Pad16)*%
X140500000Y-52375000D03*
%TD*%
D13*
%TO.P,C8,1*%
%TO.N,GND*%
X120332500Y-46500000D03*
%TO.P,C8,2*%
%TO.N,Net-(U1-VCAP_2)*%
X121467500Y-46500000D03*
%TD*%
D14*
%TO.P,TP2,1,1*%
%TO.N,/STM32F405RGTx/PA9_TX1*%
X124000000Y-65000000D03*
%TD*%
D15*
%TO.P,R10,1*%
%TO.N,/SDA1*%
X126300000Y-58997500D03*
%TO.P,R10,2*%
%TO.N,+3.3V*%
X126300000Y-57802500D03*
%TD*%
D13*
%TO.P,C19,1*%
%TO.N,+3.3V*%
X141093100Y-51309700D03*
%TO.P,C19,2*%
%TO.N,GND*%
X142228100Y-51309700D03*
%TD*%
D16*
%TO.P,L1,1,1*%
%TO.N,Net-(D6-K)*%
X143830500Y-53220000D03*
%TO.P,L1,2,2*%
%TO.N,+5V*%
X146780500Y-53220000D03*
%TD*%
D17*
%TO.P,C13,1*%
%TO.N,VBUS*%
X118300000Y-50567500D03*
%TO.P,C13,2*%
%TO.N,GND*%
X118300000Y-49432500D03*
%TD*%
D18*
%TO.P,R2,1*%
%TO.N,+3.3V*%
X136422496Y-54722496D03*
%TO.P,R2,2*%
%TO.N,/STM32F405RGTx/RST*%
X135577504Y-53877504D03*
%TD*%
D19*
%TO.P,D2,1,K*%
%TO.N,Net-(D2-K)*%
X144100000Y-39215000D03*
%TO.P,D2,2,A*%
%TO.N,+5V*%
X144100000Y-40185000D03*
%TD*%
D20*
%TO.P,C18,1*%
%TO.N,GND*%
X120798717Y-53298717D03*
%TO.P,C18,2*%
%TO.N,Net-(U5-BYP)*%
X121601283Y-54101283D03*
%TD*%
D21*
%TO.P,C26,1*%
%TO.N,+BATT*%
X145500000Y-42450000D03*
%TO.P,C26,2*%
%TO.N,GND*%
X145500000Y-40550000D03*
%TD*%
D22*
%TO.P,R4,1*%
%TO.N,Net-(D3-K)*%
X146200000Y-36302500D03*
%TO.P,R4,2*%
%TO.N,GND*%
X146200000Y-37497500D03*
%TD*%
D14*
%TO.P,TP24,1,1*%
%TO.N,GND*%
X125000000Y-61500000D03*
%TD*%
D17*
%TO.P,C11,1*%
%TO.N,+5V*%
X138600000Y-52567500D03*
%TO.P,C11,2*%
%TO.N,GND*%
X138600000Y-51432500D03*
%TD*%
D14*
%TO.P,TP20,1,1*%
%TO.N,+5V*%
X135219800Y-61570100D03*
%TD*%
D23*
%TO.P,D6,1,K*%
%TO.N,Net-(D6-K)*%
X146200000Y-48900000D03*
%TO.P,D6,2,A*%
%TO.N,GND*%
X146200000Y-44900000D03*
%TD*%
D24*
%TO.P,C7,1*%
%TO.N,GND*%
X133001283Y-40998717D03*
%TO.P,C7,2*%
%TO.N,Net-(U1-VCAP_1)*%
X132198717Y-41801283D03*
%TD*%
D17*
%TO.P,C12,1*%
%TO.N,+3.3V*%
X118300000Y-48167500D03*
%TO.P,C12,2*%
%TO.N,GND*%
X118300000Y-47032500D03*
%TD*%
D25*
%TO.P,C3,1*%
%TO.N,+BATT*%
X134900000Y-39650000D03*
%TO.P,C3,2*%
%TO.N,GND*%
X134900000Y-41550000D03*
%TD*%
D14*
%TO.P,TP17,1,1*%
%TO.N,+5V*%
X142500000Y-65000000D03*
%TD*%
%TO.P,TP23,1,1*%
%TO.N,GND*%
X117000000Y-65000000D03*
%TD*%
D19*
%TO.P,D3,1,K*%
%TO.N,Net-(D3-K)*%
X147200000Y-36415000D03*
%TO.P,D3,2,A*%
%TO.N,+3.3V*%
X147200000Y-37385000D03*
%TD*%
D26*
%TO.P,C16,1*%
%TO.N,+3.3V*%
X121267500Y-47700000D03*
%TO.P,C16,2*%
%TO.N,GND*%
X120132500Y-47700000D03*
%TD*%
D15*
%TO.P,R11,1*%
%TO.N,/SCL1*%
X127300000Y-58897500D03*
%TO.P,R11,2*%
%TO.N,+3.3V*%
X127300000Y-57702500D03*
%TD*%
%TO.P,R6,1*%
%TO.N,+5V*%
X137500000Y-52597500D03*
%TO.P,R6,2*%
%TO.N,Net-(U2-VSNS)*%
X137500000Y-51402500D03*
%TD*%
D14*
%TO.P,TP28,1,1*%
%TO.N,+5V*%
X114000000Y-43500000D03*
%TD*%
D27*
%TO.P,U3,1,GND*%
%TO.N,GND*%
X125376256Y-39644885D03*
%TO.P,U3,2,CSB*%
%TO.N,/SS2*%
X125835876Y-40104505D03*
%TO.P,U3,3,SDI*%
%TO.N,/MOSI2*%
X126295495Y-40564124D03*
%TO.P,U3,4,SCK*%
%TO.N,/SCK2*%
X126755115Y-41023744D03*
%TO.P,U3,5,SDO*%
%TO.N,/MISO2*%
X125623744Y-42155115D03*
%TO.P,U3,6,VDDIO*%
%TO.N,+3.3V*%
X125164124Y-41695495D03*
%TO.P,U3,7,GND*%
%TO.N,GND*%
X124704505Y-41235876D03*
%TO.P,U3,8,VDD*%
%TO.N,+3.3V*%
X124244885Y-40776256D03*
%TD*%
D14*
%TO.P,TP27,1,1*%
%TO.N,GND*%
X114000000Y-34500000D03*
%TD*%
D20*
%TO.P,C20,1*%
%TO.N,+3.3V*%
X123798717Y-41798717D03*
%TO.P,C20,2*%
%TO.N,GND*%
X124601283Y-42601283D03*
%TD*%
D28*
%TO.P,R5,1*%
%TO.N,Net-(D4-K)*%
X139702500Y-56000000D03*
%TO.P,R5,2*%
%TO.N,GND*%
X140897500Y-56000000D03*
%TD*%
D29*
%TO.P,C6,1*%
%TO.N,+BATT*%
X140225000Y-34200000D03*
%TO.P,C6,2*%
%TO.N,GND*%
X141775000Y-34200000D03*
%TD*%
D26*
%TO.P,C9,1*%
%TO.N,Net-(D6-K)*%
X141282085Y-44529909D03*
%TO.P,C9,2*%
%TO.N,Net-(U2-BOOT)*%
X140147085Y-44529909D03*
%TD*%
D14*
%TO.P,TP26,1,1*%
%TO.N,+5V*%
X114000000Y-56000000D03*
%TD*%
%TO.P,TP10,1,1*%
%TO.N,/STM32F405RGTx/PA0_TX4*%
X114000000Y-63000000D03*
%TD*%
%TO.P,TP13,1,1*%
%TO.N,/STM32F405RGTx/PB10_TX3*%
X114000000Y-37500000D03*
%TD*%
%TO.P,TP14,1,1*%
%TO.N,/RX3*%
X114000000Y-40500000D03*
%TD*%
D13*
%TO.P,C14,1*%
%TO.N,+3.3V*%
X137832500Y-44500000D03*
%TO.P,C14,2*%
%TO.N,GND*%
X138967500Y-44500000D03*
%TD*%
D26*
%TO.P,C25,1*%
%TO.N,Net-(U2-VSNS)*%
X142067500Y-43500000D03*
%TO.P,C25,2*%
%TO.N,+5V*%
X140932500Y-43500000D03*
%TD*%
D28*
%TO.P,R7,1*%
%TO.N,Net-(U2-VSNS)*%
X142402500Y-44500000D03*
%TO.P,R7,2*%
%TO.N,GND*%
X143597500Y-44500000D03*
%TD*%
D30*
%TO.P,R1,1*%
%TO.N,Net-(U1-BOOT0)*%
X120797500Y-55000000D03*
%TO.P,R1,2*%
%TO.N,GND*%
X119602500Y-55000000D03*
%TD*%
D14*
%TO.P,TP11,1,1*%
%TO.N,/SCL1*%
X145900000Y-61500000D03*
%TD*%
D31*
%TO.P,Y1,1,1*%
%TO.N,Net-(U1-PH0)*%
X133251472Y-57048528D03*
%TO.P,Y1,2,2*%
%TO.N,GND*%
X134100000Y-56200000D03*
%TO.P,Y1,3,3*%
%TO.N,Net-(U1-PH1)*%
X134948528Y-55351472D03*
%TD*%
D14*
%TO.P,TP16,1,1*%
%TO.N,/STM32F405RGTx/PC6_TX6*%
X139000000Y-65000000D03*
%TD*%
%TO.P,TP1,1,1*%
%TO.N,/STM32F405RGTx/PA10_RX1*%
X120500000Y-65000000D03*
%TD*%
%TO.P,TP21,1,1*%
%TO.N,GND*%
X132000000Y-65000000D03*
%TD*%
D32*
%TO.P,C17,1*%
%TO.N,+3.3V*%
X122401283Y-53301283D03*
%TO.P,C17,2*%
%TO.N,GND*%
X121598717Y-52498717D03*
%TD*%
D33*
%TO.P,J2,1,Pin_1*%
%TO.N,/RX3*%
X133250000Y-37250000D03*
%TO.P,J2,2,Pin_2*%
%TO.N,/CUR*%
X132250000Y-37250000D03*
%TO.P,J2,3,Pin_3*%
%TO.N,/M4*%
X131250000Y-37250000D03*
%TO.P,J2,4,Pin_4*%
%TO.N,/M3*%
X130250000Y-37250000D03*
%TO.P,J2,5,Pin_5*%
%TO.N,/M2*%
X129250000Y-37250000D03*
%TO.P,J2,6,Pin_6*%
%TO.N,/M1*%
X128250000Y-37250000D03*
%TO.P,J2,7,Pin_7*%
%TO.N,+BATT*%
X127250000Y-37250000D03*
%TO.P,J2,8,Pin_8*%
%TO.N,GND*%
X126250000Y-37250000D03*
D34*
%TO.P,J2,MP*%
%TO.N,N/C*%
X134550000Y-33375000D03*
X124950000Y-33375000D03*
%TD*%
D21*
%TO.P,C4,1*%
%TO.N,+BATT*%
X136900000Y-36350000D03*
%TO.P,C4,2*%
%TO.N,GND*%
X136900000Y-34450000D03*
%TD*%
D29*
%TO.P,C5,1*%
%TO.N,+BATT*%
X140225000Y-35700000D03*
%TO.P,C5,2*%
%TO.N,GND*%
X141775000Y-35700000D03*
%TD*%
D22*
%TO.P,R3,1*%
%TO.N,Net-(D2-K)*%
X145000000Y-36302500D03*
%TO.P,R3,2*%
%TO.N,GND*%
X145000000Y-37497500D03*
%TD*%
D14*
%TO.P,TP8,1,1*%
%TO.N,/STM32F405RGTx/PA2_TX2*%
X131719800Y-61570100D03*
%TD*%
D35*
%TO.P,U2,1,BOOT*%
%TO.N,Net-(U2-BOOT)*%
X138279000Y-46153400D03*
%TO.P,U2,2,NC*%
%TO.N,unconnected-(U2-NC-Pad2)*%
X138279000Y-47423400D03*
%TO.P,U2,3,NC*%
%TO.N,unconnected-(U2-NC-Pad3)*%
X138279000Y-48693400D03*
%TO.P,U2,4,VSNS*%
%TO.N,Net-(U2-VSNS)*%
X138279000Y-49963400D03*
%TO.P,U2,5,ENA*%
%TO.N,unconnected-(U2-ENA-Pad5)*%
X143229000Y-49963400D03*
%TO.P,U2,6,GND*%
%TO.N,GND*%
X143229000Y-48693400D03*
%TO.P,U2,7,VIN*%
%TO.N,+BATT*%
X143229000Y-47423400D03*
%TO.P,U2,8,PH*%
%TO.N,Net-(D6-K)*%
X143229000Y-46153400D03*
%TD*%
D36*
%TO.P,D4,1,K*%
%TO.N,Net-(D4-K)*%
X136142947Y-58657053D03*
%TO.P,D4,2,A*%
%TO.N,/Stat_LED*%
X135457053Y-59342947D03*
%TD*%
D37*
%TO.P,U1,1,VBAT*%
%TO.N,+3.3V*%
X130561181Y-56064481D03*
%TO.P,U1,2,PC13*%
%TO.N,/STM32F405RGTx/PC13*%
X130914734Y-55710928D03*
%TO.P,U1,3,PC14*%
%TO.N,/STM32F405RGTx/PC14*%
X131268287Y-55357375D03*
%TO.P,U1,4,PC15*%
%TO.N,/STM32F405RGTx/PC15*%
X131621841Y-55003821D03*
%TO.P,U1,5,PH0*%
%TO.N,Net-(U1-PH0)*%
X131975394Y-54650268D03*
%TO.P,U1,6,PH1*%
%TO.N,Net-(U1-PH1)*%
X132328948Y-54296714D03*
%TO.P,U1,7,NRST*%
%TO.N,/STM32F405RGTx/RST*%
X132682501Y-53943161D03*
%TO.P,U1,8,PC0*%
%TO.N,/STM32F405RGTx/PC0*%
X133036054Y-53589608D03*
%TO.P,U1,9,PC1*%
X133389608Y-53236054D03*
%TO.P,U1,10,PC2*%
%TO.N,/STM32F405RGTx/PC2*%
X133743161Y-52882501D03*
%TO.P,U1,11,PC3*%
%TO.N,/STM32F405RGTx/PC3*%
X134096714Y-52528948D03*
%TO.P,U1,12,VSSA*%
%TO.N,GND*%
X134450268Y-52175394D03*
%TO.P,U1,13,VDDA*%
%TO.N,+3.3V*%
X134803821Y-51821841D03*
%TO.P,U1,14,PA0*%
%TO.N,/STM32F405RGTx/PA0_TX4*%
X135157375Y-51468287D03*
%TO.P,U1,15,PA1*%
%TO.N,/STM32F405RGTx/PA1_RX4*%
X135510928Y-51114734D03*
%TO.P,U1,16,PA2*%
%TO.N,/STM32F405RGTx/PA2_TX2*%
X135864481Y-50761181D03*
D38*
%TO.P,U1,17,PA3*%
%TO.N,/STM32F405RGTx/PA3_RX2*%
X135864481Y-48038819D03*
%TO.P,U1,18,VSS*%
%TO.N,GND*%
X135510928Y-47685266D03*
%TO.P,U1,19,VDD*%
%TO.N,+3.3V*%
X135157375Y-47331713D03*
%TO.P,U1,20,PA4*%
%TO.N,/STM32F405RGTx/PA4_NSS1*%
X134803821Y-46978159D03*
%TO.P,U1,21,PA5*%
%TO.N,/STM32F405RGTx/PA5_SCK1*%
X134450268Y-46624606D03*
%TO.P,U1,22,PA6*%
%TO.N,/STM32F405RGTx/PA6_MISO1*%
X134096714Y-46271052D03*
%TO.P,U1,23,PA7*%
%TO.N,/STM32F405RGTx/PA7_MOSI1*%
X133743161Y-45917499D03*
%TO.P,U1,24,PC4*%
%TO.N,/STM32F405RGTx/PC4*%
X133389608Y-45563946D03*
%TO.P,U1,25,PC5*%
%TO.N,/STM32F405RGTx/PC5*%
X133036054Y-45210392D03*
%TO.P,U1,26,PB0*%
%TO.N,/M2*%
X132682501Y-44856839D03*
%TO.P,U1,27,PB1*%
%TO.N,/M1*%
X132328948Y-44503286D03*
%TO.P,U1,28,PB2*%
%TO.N,/LIS3DH_INT_PIN*%
X131975394Y-44149732D03*
%TO.P,U1,29,PB10*%
%TO.N,/STM32F405RGTx/PB10_TX3*%
X131621841Y-43796179D03*
%TO.P,U1,30,PB11*%
%TO.N,/RX3*%
X131268287Y-43442625D03*
%TO.P,U1,31,VCAP_1*%
%TO.N,Net-(U1-VCAP_1)*%
X130914734Y-43089072D03*
%TO.P,U1,32,VDD*%
%TO.N,+3.3V*%
X130561181Y-42735519D03*
D37*
%TO.P,U1,33,PB12*%
%TO.N,/SS2*%
X127838819Y-42735519D03*
%TO.P,U1,34,PB13*%
%TO.N,/SCK2*%
X127485266Y-43089072D03*
%TO.P,U1,35,PB14*%
%TO.N,/MISO2*%
X127131713Y-43442625D03*
%TO.P,U1,36,PB15*%
%TO.N,/MOSI2*%
X126778159Y-43796179D03*
%TO.P,U1,37,PC6*%
%TO.N,/STM32F405RGTx/PC6_TX6*%
X126424606Y-44149732D03*
%TO.P,U1,38,PC7*%
%TO.N,/STM32F405RGTx/PC7_RX6*%
X126071052Y-44503286D03*
%TO.P,U1,39,PC8*%
%TO.N,/M4*%
X125717499Y-44856839D03*
%TO.P,U1,40,PC9*%
%TO.N,/M3*%
X125363946Y-45210392D03*
%TO.P,U1,41,PA8*%
%TO.N,/MMA8451_INT_PIN*%
X125010392Y-45563946D03*
%TO.P,U1,42,PA9*%
%TO.N,/STM32F405RGTx/PA9_TX1*%
X124656839Y-45917499D03*
%TO.P,U1,43,PA10*%
%TO.N,/STM32F405RGTx/PA10_RX1*%
X124303286Y-46271052D03*
%TO.P,U1,44,PA11*%
%TO.N,/USB-*%
X123949732Y-46624606D03*
%TO.P,U1,45,PA12*%
%TO.N,/USB+*%
X123596179Y-46978159D03*
%TO.P,U1,46,PA13*%
%TO.N,/STM32F405RGTx/PA13_SWDIO*%
X123242625Y-47331713D03*
%TO.P,U1,47,VCAP_2*%
%TO.N,Net-(U1-VCAP_2)*%
X122889072Y-47685266D03*
%TO.P,U1,48,VDD*%
%TO.N,+3.3V*%
X122535519Y-48038819D03*
D38*
%TO.P,U1,49,PA14*%
%TO.N,/STM32F405RGTx/PA14_SWCLK*%
X122535519Y-50761181D03*
%TO.P,U1,50,PA15*%
%TO.N,/SS3*%
X122889072Y-51114734D03*
%TO.P,U1,51,PC10*%
%TO.N,/SCK3*%
X123242625Y-51468287D03*
%TO.P,U1,52,PC11*%
%TO.N,/MISO3*%
X123596179Y-51821841D03*
%TO.P,U1,53,PC12*%
%TO.N,/MOSI3*%
X123949732Y-52175394D03*
%TO.P,U1,54,PD2*%
%TO.N,/STM32F405RGTx/PD2*%
X124303286Y-52528948D03*
%TO.P,U1,55,PB3*%
%TO.N,/Stat_LED*%
X124656839Y-52882501D03*
%TO.P,U1,56,PB4*%
%TO.N,/CUR*%
X125010392Y-53236054D03*
%TO.P,U1,57,PB5*%
%TO.N,/STM32F405RGTx/PB5*%
X125363946Y-53589608D03*
%TO.P,U1,58,PB6*%
%TO.N,/SCL1*%
X125717499Y-53943161D03*
%TO.P,U1,59,PB7*%
%TO.N,/SDA1*%
X126071052Y-54296714D03*
%TO.P,U1,60,BOOT0*%
%TO.N,Net-(U1-BOOT0)*%
X126424606Y-54650268D03*
%TO.P,U1,61,PB8*%
%TO.N,/STM32F405RGTx/PB8*%
X126778159Y-55003821D03*
%TO.P,U1,62,PB9*%
%TO.N,/STM32F405RGTx/PB9*%
X127131713Y-55357375D03*
%TO.P,U1,63,VSS*%
%TO.N,GND*%
X127485266Y-55710928D03*
%TO.P,U1,64,VDD*%
%TO.N,+3.3V*%
X127838819Y-56064481D03*
%TD*%
D30*
%TO.P,R9,1*%
%TO.N,/USB-*%
X121597500Y-44000000D03*
%TO.P,R9,2*%
%TO.N,Net-(J1-D-)*%
X120402500Y-44000000D03*
%TD*%
D28*
%TO.P,R8,1*%
%TO.N,Net-(J1-D+)*%
X120402500Y-45000000D03*
%TO.P,R8,2*%
%TO.N,/USB+*%
X121597500Y-45000000D03*
%TD*%
D39*
%TO.P,C15,1*%
%TO.N,+3.3V*%
X130198717Y-41601283D03*
%TO.P,C15,2*%
%TO.N,GND*%
X131001283Y-40798717D03*
%TD*%
D40*
%TO.P,C21,1*%
%TO.N,+3.3V*%
X131200000Y-58232500D03*
%TO.P,C21,2*%
%TO.N,GND*%
X131200000Y-59367500D03*
%TD*%
D14*
%TO.P,TP15,1,1*%
%TO.N,/STM32F405RGTx/PC7_RX6*%
X135500000Y-65000000D03*
%TD*%
%TO.P,TP9,1,1*%
%TO.N,/STM32F405RGTx/PA1_RX4*%
X114000000Y-59500000D03*
%TD*%
%TO.P,TP19,1,1*%
%TO.N,+5V*%
X127500000Y-65000000D03*
%TD*%
D41*
%TO.P,U5,1,VDDIO*%
%TO.N,+3.3V*%
X123205546Y-54191332D03*
%TO.P,U5,2,BYP*%
%TO.N,Net-(U5-BYP)*%
X122851992Y-54544885D03*
%TO.P,U5,3,NC*%
%TO.N,unconnected-(U5-NC-Pad3)*%
X122498439Y-54898439D03*
%TO.P,U5,4,SCL*%
%TO.N,/SCL1*%
X122144885Y-55251992D03*
%TO.P,U5,5,GND*%
%TO.N,GND*%
X121791332Y-55605546D03*
D42*
%TO.P,U5,6,SDA*%
%TO.N,/SDA1*%
X122144885Y-56348008D03*
%TO.P,U5,7,SA0*%
%TO.N,GND*%
X122498439Y-56701561D03*
%TO.P,U5,8,NC*%
%TO.N,unconnected-(U5-NC-Pad8)*%
X122851992Y-57055115D03*
D43*
%TO.P,U5,9,INT2*%
%TO.N,/MMA8451_INT_PIN*%
X123594454Y-57408668D03*
%TO.P,U5,10,GND*%
%TO.N,GND*%
X123948008Y-57055115D03*
%TO.P,U5,11,INT1*%
%TO.N,unconnected-(U5-INT1-Pad11)*%
X124301561Y-56701561D03*
%TO.P,U5,12,GND*%
%TO.N,GND*%
X124655115Y-56348008D03*
%TO.P,U5,13,NC*%
%TO.N,unconnected-(U5-NC-Pad13)*%
X125008668Y-55994454D03*
D44*
%TO.P,U5,14,VDD*%
%TO.N,+3.3V*%
X124655115Y-55251992D03*
%TO.P,U5,15,NC*%
%TO.N,unconnected-(U5-NC-Pad15)*%
X124301561Y-54898439D03*
%TO.P,U5,16,NC*%
%TO.N,unconnected-(U5-NC-Pad16)*%
X123948008Y-54544885D03*
%TD*%
D14*
%TO.P,TP7,1,1*%
%TO.N,/STM32F405RGTx/PA3_RX2*%
X128219800Y-61570100D03*
%TD*%
%TO.P,TP12,1,1*%
%TO.N,/SDA1*%
X145900000Y-58500000D03*
%TD*%
D45*
%TO.P,U7,1,SCL/SPC*%
%TO.N,/SCL1*%
X128550000Y-59262500D03*
%TO.P,U7,2,GND*%
%TO.N,GND*%
X129050000Y-59262500D03*
%TO.P,U7,3,GND*%
X129550000Y-59262500D03*
%TO.P,U7,4,C1*%
%TO.N,unconnected-(U7-C1-Pad4)*%
X130050000Y-59262500D03*
D46*
%TO.P,U7,5,Vdd*%
%TO.N,+3.3V*%
X130062500Y-58750000D03*
%TO.P,U7,6,Vdd_IO*%
X130062500Y-58250000D03*
D45*
%TO.P,U7,7,INT*%
%TO.N,unconnected-(U7-INT-Pad7)*%
X130050000Y-57737500D03*
%TO.P,U7,8,DRDY*%
%TO.N,unconnected-(U7-DRDY-Pad8)*%
X129550000Y-57737500D03*
%TO.P,U7,9,SDO/SA1*%
%TO.N,GND*%
X129050000Y-57737500D03*
%TO.P,U7,10,~{CS}*%
%TO.N,unconnected-(U7-~{CS}-Pad10)*%
X128550000Y-57737500D03*
D46*
%TO.P,U7,11,SDA/SDI/SDO*%
%TO.N,/SDA1*%
X128537500Y-58250000D03*
%TO.P,U7,12,GND*%
%TO.N,GND*%
X128537500Y-58750000D03*
%TD*%
D47*
%TO.P,J1,6,Shield*%
%TO.N,GND*%
X114360000Y-52325000D03*
D48*
X114360000Y-46675000D03*
%TD*%
D49*
%TO.N,/RX3*%
X132022700Y-42616400D03*
X131442600Y-38400400D03*
%TO.N,/CUR*%
X131600000Y-36100000D03*
X128000000Y-50200000D03*
%TO.N,/M1*%
X129603200Y-38404300D03*
X129624400Y-40551100D03*
%TO.N,+BATT*%
X139521200Y-42212500D03*
%TO.N,GND*%
X114900000Y-35400000D03*
X135000000Y-41600000D03*
X139500000Y-51500000D03*
X141500000Y-56500000D03*
X136620100Y-48181800D03*
X128400000Y-54500000D03*
X124600000Y-42900000D03*
X133500000Y-55500000D03*
X129200000Y-58500000D03*
X144300000Y-41400000D03*
X129649700Y-39790800D03*
X141800000Y-34200000D03*
X116200000Y-64200000D03*
X125000000Y-38000000D03*
X124200000Y-60800000D03*
X113100000Y-33600000D03*
X146200000Y-37500000D03*
X120600000Y-53500000D03*
X132800000Y-65800000D03*
X125700000Y-62200000D03*
X143000000Y-43500000D03*
X113700000Y-51300000D03*
X141000000Y-53500000D03*
X125000000Y-38000000D03*
X123600000Y-55900000D03*
X119300000Y-49700000D03*
X136900000Y-34400000D03*
X125000000Y-40600000D03*
X143229000Y-48693400D03*
X113700000Y-47700000D03*
X145000000Y-37500000D03*
X141800000Y-35700000D03*
X121400000Y-52100000D03*
X136334300Y-44415900D03*
X131200000Y-64200000D03*
X147620300Y-50764600D03*
X119400000Y-46800000D03*
X117900000Y-65900000D03*
X133000000Y-51500000D03*
%TO.N,+3.3V*%
X145200000Y-38700000D03*
X146800000Y-40300000D03*
X122230100Y-43019400D03*
X139997300Y-45899700D03*
X123684600Y-48495600D03*
X123760400Y-42603200D03*
X126007000Y-52648600D03*
%TO.N,Net-(U1-BOOT0)*%
X124815400Y-59105400D03*
X127775700Y-54330600D03*
%TO.N,/STM32F405RGTx/PA7_MOSI1*%
X136500700Y-45665600D03*
%TO.N,/STM32F405RGTx/PA6_MISO1*%
X136679700Y-46270800D03*
%TO.N,/STM32F405RGTx/PA5_SCK1*%
X135560800Y-46128400D03*
%TO.N,VBUS*%
X118300000Y-50567500D03*
%TO.N,Net-(J1-D-)*%
X120402000Y-44000000D03*
%TO.N,Net-(J1-D+)*%
X120402000Y-45000000D03*
%TO.N,/STM32F405RGTx/PA4_NSS1*%
X134198600Y-47973400D03*
%TO.N,/STM32F405RGTx/PA3_RX2*%
X129790500Y-60230000D03*
X134404900Y-49088000D03*
%TO.N,/STM32F405RGTx/PA2_TX2*%
X134551500Y-50117800D03*
X134238400Y-59519500D03*
%TO.N,/STM32F405RGTx/PA1_RX4*%
X119751600Y-57350000D03*
X127376000Y-51901000D03*
%TO.N,/STM32F405RGTx/PA0_TX4*%
X133499998Y-50900000D03*
X122186800Y-62167900D03*
%TO.N,/STM32F405RGTx/PB10_TX3*%
X132608300Y-43197600D03*
X117085900Y-37084900D03*
%TO.N,/STM32F405RGTx/PC7_RX6*%
X126127900Y-46042600D03*
X123122700Y-61480200D03*
%TO.N,+5V*%
X143300000Y-65800000D03*
X113200000Y-55200000D03*
X141700000Y-64200000D03*
X116500000Y-56500000D03*
X140000000Y-43500000D03*
X114900000Y-44400000D03*
X134400000Y-60800000D03*
X143800000Y-40900000D03*
X135900000Y-62300000D03*
X138500000Y-54000000D03*
X113200000Y-42700000D03*
X128300000Y-65800000D03*
X126700000Y-64200000D03*
X144000000Y-56500000D03*
X114900000Y-56900000D03*
%TO.N,/SDA1*%
X128211900Y-56770700D03*
X139000000Y-55000000D03*
X129598900Y-54409900D03*
%TO.N,/LIS3DH_INT_PIN*%
X134341600Y-44631000D03*
X142850100Y-54080400D03*
%TO.N,/MMA8451_INT_PIN*%
X124262900Y-58077100D03*
X115710000Y-47437100D03*
%TO.N,/STM32F405RGTx/RST*%
X132412800Y-50336700D03*
%TO.N,/MOSI2*%
X125837200Y-41022400D03*
X125800000Y-43000000D03*
%TO.N,/Stat_LED*%
X135143500Y-49826600D03*
X135369200Y-58625500D03*
%TO.N,/STM32F405RGTx/PA14_SWCLK*%
X124990400Y-49848500D03*
%TO.N,/STM32F405RGTx/PA13_SWDIO*%
X122398900Y-46594200D03*
%TO.N,/MOSI3*%
X135966300Y-48722100D03*
%TO.N,/MISO3*%
X132125800Y-46381100D03*
%TO.N,/SCK3*%
X129876700Y-44292600D03*
%TO.N,/SS3*%
X128969600Y-42818900D03*
%TD*%
D50*
%TO.N,/RX3*%
X131881800Y-35606900D02*
X133250000Y-36975100D01*
X133250000Y-36975100D02*
X133250000Y-37250000D01*
X132369300Y-38400400D02*
X133250000Y-37519700D01*
X114244100Y-40500000D02*
X119137200Y-35606900D01*
X119137200Y-35606900D02*
X131881800Y-35606900D01*
X132022700Y-42688200D02*
X132022700Y-42616400D01*
X131442600Y-38400400D02*
X132369300Y-38400400D01*
X131268300Y-43442600D02*
X132022700Y-42688200D01*
X114000000Y-40500000D02*
X114244100Y-40500000D01*
X133250000Y-37519700D02*
X133250000Y-37250000D01*
%TO.N,/CUR*%
X125010392Y-53236054D02*
X125010392Y-52989720D01*
X125010392Y-52989720D02*
X127800112Y-50200000D01*
X132250000Y-37250000D02*
X132250000Y-36750000D01*
X127800112Y-50200000D02*
X128000000Y-50200000D01*
X132250000Y-36750000D02*
X131600000Y-36100000D01*
%TO.N,/M4*%
X123193800Y-42609900D02*
X123592500Y-43008600D01*
X126214900Y-36065100D02*
X123193800Y-39086200D01*
X123193800Y-39086200D02*
X123193800Y-42609900D01*
X129307200Y-36065100D02*
X126214900Y-36065100D01*
X131250000Y-37250000D02*
X131250000Y-37518300D01*
X130001200Y-38228900D02*
X129768400Y-37996100D01*
X129768400Y-36526300D02*
X129307200Y-36065100D01*
X129768400Y-37996100D02*
X129768400Y-36526300D01*
X123592500Y-43008600D02*
X123869300Y-43008600D01*
X123869300Y-43008600D02*
X125717500Y-44856800D01*
X131250000Y-37518300D02*
X130539400Y-38228900D01*
X130539400Y-38228900D02*
X130001200Y-38228900D01*
%TO.N,/M3*%
X129392700Y-35841000D02*
X130250000Y-36698300D01*
X130250000Y-36698300D02*
X130250000Y-37250000D01*
X126043100Y-35841000D02*
X129392700Y-35841000D01*
X122970100Y-38914000D02*
X126043100Y-35841000D01*
X125363900Y-45210400D02*
X122970100Y-42816600D01*
X122970100Y-42816600D02*
X122970100Y-38914000D01*
%TO.N,/M2*%
X126750000Y-36537800D02*
X126750000Y-38259600D01*
X129388800Y-40898400D02*
X129388800Y-43231100D01*
X129250000Y-37023700D02*
X128528500Y-36302200D01*
X132198400Y-45340900D02*
X132682500Y-44856800D01*
X129388800Y-43231100D02*
X131498600Y-45340900D01*
X129250000Y-37250000D02*
X129250000Y-37023700D01*
X126985600Y-36302200D02*
X126750000Y-36537800D01*
X131498600Y-45340900D02*
X132198400Y-45340900D01*
X128528500Y-36302200D02*
X126985600Y-36302200D01*
X126750000Y-38259600D02*
X129388800Y-40898400D01*
%TO.N,/M1*%
X132328900Y-44503300D02*
X131864900Y-44967300D01*
X129624400Y-43157100D02*
X129624400Y-40551100D01*
X129176100Y-38404300D02*
X128250000Y-37478200D01*
X131434600Y-44967300D02*
X129624400Y-43157100D01*
X128250000Y-37478200D02*
X128250000Y-37250000D01*
X129603200Y-38404300D02*
X129176100Y-38404300D01*
X131864900Y-44967300D02*
X131434600Y-44967300D01*
D51*
%TO.N,+BATT*%
X137350000Y-42100000D02*
X134900000Y-39650000D01*
X144700000Y-44000000D02*
X143600000Y-42900000D01*
X143229000Y-47423400D02*
X143877000Y-47423400D01*
D50*
X139521200Y-42212500D02*
X139521200Y-42100000D01*
D51*
X138050000Y-36350000D02*
X138700000Y-35700000D01*
X143600000Y-42900000D02*
X144050000Y-42450000D01*
X128632000Y-39100000D02*
X134350000Y-39100000D01*
X143600000Y-42900000D02*
X142800000Y-42100000D01*
X134900000Y-38350000D02*
X136900000Y-36350000D01*
X142800000Y-42100000D02*
X139521200Y-42100000D01*
X127250000Y-37250000D02*
X127250000Y-37718000D01*
X138700000Y-35700000D02*
X140225000Y-35700000D01*
X144700000Y-46600000D02*
X144700000Y-44000000D01*
X140225000Y-35700000D02*
X140225000Y-34200000D01*
X144050000Y-42450000D02*
X145500000Y-42450000D01*
X139521200Y-42100000D02*
X137350000Y-42100000D01*
X134350000Y-39100000D02*
X134900000Y-39650000D01*
X143877000Y-47423400D02*
X144700000Y-46600000D01*
X134900000Y-39650000D02*
X134900000Y-38350000D01*
X127250000Y-37718000D02*
X128632000Y-39100000D01*
X136900000Y-36350000D02*
X138050000Y-36350000D01*
D50*
%TO.N,GND*%
X121598700Y-52399000D02*
X121598700Y-52498700D01*
X129050000Y-59262500D02*
X129050000Y-58650000D01*
X120799000Y-53300000D02*
X120798700Y-53299700D01*
X125376300Y-39644900D02*
X126250000Y-38771200D01*
X124431000Y-56124000D02*
X124207000Y-55900000D01*
X120132000Y-47616200D02*
X120132500Y-47616700D01*
X124705000Y-41065700D02*
X124704500Y-41066200D01*
X129300000Y-59574700D02*
X129300000Y-59396200D01*
D51*
X144650000Y-41400000D02*
X144300000Y-41400000D01*
D50*
X122498400Y-56701600D02*
X122891200Y-56308800D01*
X124431000Y-56124000D02*
X124431100Y-56124000D01*
X113514200Y-47885800D02*
X113514200Y-48863900D01*
X140897500Y-56000000D02*
X141000000Y-56000000D01*
X125188000Y-39833000D02*
X125000000Y-40021100D01*
X121599000Y-52398700D02*
X121599000Y-52298700D01*
X132200000Y-40500000D02*
X131901000Y-40798700D01*
X141000000Y-56000000D02*
X141500000Y-56500000D01*
X122891200Y-56308600D02*
X122891200Y-56308800D01*
X120600000Y-53500000D02*
X119602000Y-54497500D01*
X129300000Y-59396200D02*
X129550000Y-59146200D01*
X129550000Y-59262500D02*
X129550000Y-59146200D01*
X139432500Y-51432500D02*
X139500000Y-51500000D01*
X134100000Y-56200000D02*
X134100000Y-56100000D01*
X118300000Y-47032500D02*
X119168000Y-47032500D01*
X123948000Y-57055100D02*
X123600000Y-56707100D01*
X129050000Y-58350000D02*
X129200000Y-58500000D01*
X134450268Y-52175394D02*
X133774874Y-51500000D01*
X124705000Y-41065700D02*
X124705000Y-40895500D01*
X141800000Y-34200000D02*
X141775000Y-34200000D01*
X142472000Y-53100000D02*
X142225000Y-53100000D01*
X131200000Y-59367500D02*
X130961900Y-59605600D01*
X138484900Y-44017400D02*
X136732800Y-44017400D01*
X113514200Y-48863900D02*
X114150300Y-49500000D01*
X141800000Y-35700000D02*
X141775000Y-35700000D01*
X120132000Y-47616200D02*
X120132000Y-47532500D01*
X125700000Y-62200000D02*
X125000000Y-61500000D01*
X119032000Y-49432500D02*
X119300000Y-49700000D01*
X128400000Y-54796200D02*
X128400000Y-54500000D01*
X129550000Y-59146200D02*
X129550000Y-58850000D01*
X144788000Y-37712000D02*
X144788000Y-39838000D01*
X128538000Y-58750000D02*
X128537500Y-58750000D01*
X129550000Y-58850000D02*
X129200000Y-58500000D01*
X122899000Y-56300800D02*
X122891200Y-56308600D01*
X139775000Y-54600000D02*
X139900000Y-54600000D01*
X120799000Y-53300000D02*
X120799000Y-53301300D01*
X124704500Y-41066200D02*
X124704500Y-41235900D01*
X145000000Y-37500000D02*
X144788000Y-37712000D01*
X123600000Y-56707100D02*
X123600000Y-55900000D01*
X120332000Y-46500000D02*
X119700000Y-46500000D01*
X120132000Y-47700000D02*
X120132000Y-47616200D01*
X134100000Y-56100000D02*
X133500000Y-55500000D01*
X142228000Y-51309700D02*
X142814000Y-51895200D01*
D51*
X146800000Y-41850000D02*
X145500000Y-40550000D01*
D50*
X120332000Y-46500000D02*
X120332500Y-46500000D01*
X116200000Y-64200000D02*
X117000000Y-65000000D01*
X125376000Y-39644900D02*
X125188000Y-39833000D01*
X132699000Y-40998700D02*
X132200000Y-40500000D01*
X121599000Y-52298700D02*
X121400000Y-52100000D01*
X128950000Y-58750000D02*
X129050000Y-58650000D01*
X143597500Y-44500000D02*
X143597500Y-44097500D01*
X120132500Y-47616700D02*
X120132500Y-47700000D01*
X119168000Y-47032500D02*
X119400000Y-46800000D01*
X131001000Y-40798700D02*
X130657600Y-40798700D01*
X119602000Y-54748700D02*
X119602000Y-55000000D01*
X141600000Y-54100000D02*
X141000000Y-53500000D01*
X135000000Y-41600000D02*
X134950000Y-41600000D01*
X130961900Y-59605600D02*
X129330900Y-59605600D01*
X125188000Y-39833000D02*
X125188200Y-39833000D01*
X141400000Y-53100000D02*
X141000000Y-53500000D01*
X126250000Y-38771200D02*
X126250000Y-37250000D01*
X113700000Y-47700000D02*
X113514200Y-47885800D01*
X119602500Y-54749200D02*
X119602500Y-55000000D01*
X131001300Y-40798700D02*
X131001000Y-40798700D01*
X121599000Y-52398700D02*
X121598700Y-52399000D01*
X142814000Y-52758400D02*
X142472000Y-53100000D01*
D51*
X146200000Y-44900000D02*
X146800000Y-44300000D01*
D50*
X114150300Y-49500000D02*
X114362500Y-49500000D01*
X120799000Y-53298700D02*
X120799000Y-53300000D01*
X120799000Y-53301300D02*
X120600000Y-53500000D01*
X124655000Y-56348000D02*
X124431000Y-56124000D01*
X124600000Y-42900000D02*
X124601300Y-42898700D01*
X125500000Y-38000000D02*
X125000000Y-38000000D01*
X127485000Y-55710900D02*
X128400000Y-54796200D01*
X133774874Y-51500000D02*
X133000000Y-51500000D01*
X120132000Y-47532500D02*
X119400000Y-46800000D01*
X142225000Y-54100000D02*
X141600000Y-54100000D01*
D52*
X121791000Y-55605500D02*
X121986000Y-55800000D01*
D50*
X133001000Y-40998700D02*
X132699000Y-40998700D01*
X113100000Y-33600000D02*
X114000000Y-34500000D01*
X128538000Y-58750000D02*
X128950000Y-58750000D01*
D52*
X123500000Y-55800000D02*
X123600000Y-55900000D01*
D50*
X124705000Y-40895500D02*
X125000000Y-40600000D01*
X124705000Y-41235900D02*
X124705000Y-41065700D01*
X141000000Y-54825000D02*
X141000000Y-53500000D01*
X136697500Y-48104400D02*
X136620100Y-48181800D01*
X139900000Y-54600000D02*
X141000000Y-53500000D01*
X125188200Y-39833000D02*
X125376300Y-39644900D01*
X138967500Y-44500000D02*
X138484900Y-44017400D01*
X138600000Y-51432500D02*
X139432500Y-51432500D01*
X125000000Y-40021100D02*
X125000000Y-40600000D01*
X142225000Y-53100000D02*
X141400000Y-53100000D01*
X142814000Y-51895200D02*
X142814000Y-52758400D01*
X136732800Y-44017400D02*
X136334300Y-44415900D01*
X129050000Y-58650000D02*
X129200000Y-58500000D01*
X122899000Y-56300800D02*
X123300000Y-55900000D01*
X135510900Y-47685300D02*
X136002800Y-47193400D01*
X119602000Y-54497500D02*
X119602000Y-54748700D01*
X126250000Y-37250000D02*
X125500000Y-38000000D01*
X129330900Y-59605600D02*
X129300000Y-59574700D01*
X143597500Y-44097500D02*
X143000000Y-43500000D01*
X131200000Y-64200000D02*
X132000000Y-65000000D01*
X136697500Y-47555100D02*
X136697500Y-48104400D01*
D52*
X121986000Y-55800000D02*
X123500000Y-55800000D01*
D50*
X123300000Y-55900000D02*
X123600000Y-55900000D01*
X121599000Y-52498700D02*
X121599000Y-52398700D01*
X144788000Y-39838000D02*
X145500000Y-40550000D01*
X136002800Y-47193400D02*
X136335800Y-47193400D01*
X146200000Y-37500000D02*
X146200000Y-37497500D01*
X124431100Y-56124000D02*
X124655100Y-56348000D01*
X120798700Y-53299700D02*
X120798700Y-53298700D01*
X129050000Y-57737500D02*
X129050000Y-58350000D01*
X134950000Y-41600000D02*
X134900000Y-41550000D01*
D51*
X146800000Y-44300000D02*
X146800000Y-41850000D01*
D50*
X124601300Y-42898700D02*
X124601300Y-42601300D01*
D51*
X145500000Y-40550000D02*
X144650000Y-41400000D01*
D50*
X136900000Y-34400000D02*
X136900000Y-34450000D01*
X122498000Y-56701600D02*
X122899000Y-56300800D01*
X136335800Y-47193400D02*
X136697500Y-47555100D01*
X119602000Y-54748700D02*
X119602500Y-54749200D01*
X131901000Y-40798700D02*
X131001300Y-40798700D01*
X124207000Y-55900000D02*
X123600000Y-55900000D01*
X119700000Y-46500000D02*
X119400000Y-46800000D01*
X133001300Y-40998700D02*
X133001000Y-40998700D01*
X145000000Y-37497500D02*
X145000000Y-37500000D01*
X118300000Y-49432500D02*
X119032000Y-49432500D01*
X129050000Y-58650000D02*
X129200000Y-58500000D01*
X130657600Y-40798700D02*
X129649700Y-39790800D01*
%TO.N,+3.3V*%
X120544800Y-48167500D02*
X120927200Y-47785100D01*
X124244900Y-40776300D02*
X124245000Y-40776300D01*
X141093000Y-51309700D02*
X141093100Y-51309700D01*
X136422000Y-54722500D02*
X136422000Y-54162900D01*
X130199000Y-42373100D02*
X130380000Y-42554300D01*
X130199000Y-41987200D02*
X130199000Y-42373100D01*
X120927200Y-47785100D02*
X120927200Y-47700000D01*
X130735100Y-58232500D02*
X130735100Y-56238400D01*
X131200000Y-58232500D02*
X133703800Y-58232500D01*
X130735100Y-56238400D02*
X130561200Y-56064500D01*
X130062500Y-58250000D02*
X130062300Y-58249800D01*
X131792700Y-41190600D02*
X131382000Y-41601300D01*
X124455000Y-55452000D02*
X123852000Y-55452000D01*
X136961500Y-52000000D02*
X139175000Y-52000000D01*
X136422000Y-55514300D02*
X136422000Y-54722500D01*
X130380000Y-42554300D02*
X130561000Y-42735500D01*
X123799000Y-41222400D02*
X124245000Y-40776300D01*
X127569500Y-56333900D02*
X127838800Y-56064600D01*
X130735100Y-58232500D02*
X130080000Y-58232500D01*
X123406000Y-54391400D02*
X123206000Y-54191300D01*
X127379000Y-56524400D02*
X126524000Y-56524400D01*
X124655000Y-55252000D02*
X124455000Y-55452000D01*
X123798700Y-42564900D02*
X123798700Y-41798700D01*
X137127800Y-46644200D02*
X137127800Y-45204700D01*
X136438600Y-45204700D02*
X132424500Y-41190600D01*
X123798700Y-41798700D02*
X123799000Y-41798700D01*
X136422000Y-54162900D02*
X136422000Y-53440500D01*
X141500000Y-51716600D02*
X141500000Y-52375000D01*
X124655100Y-55252000D02*
X124655000Y-55252000D01*
X130062500Y-58750000D02*
X130062000Y-58750000D01*
X122702900Y-53602900D02*
X122401000Y-53301300D01*
X123852000Y-55452000D02*
X123406000Y-55005600D01*
X116638000Y-48550000D02*
X117918000Y-48550000D01*
X118300000Y-48167500D02*
X120544800Y-48167500D01*
X130198700Y-41986900D02*
X130198700Y-41601300D01*
X123205500Y-54191300D02*
X123206000Y-54191300D01*
X123799000Y-41798700D02*
X123799000Y-41222400D01*
X123760400Y-42603200D02*
X123798700Y-42564900D01*
X135497400Y-52515500D02*
X134804000Y-51821800D01*
X139775000Y-52600000D02*
X140100000Y-52600000D01*
X136422500Y-54163400D02*
X136422500Y-54722500D01*
X130005300Y-56064500D02*
X130561200Y-56064500D01*
X133703800Y-58232500D02*
X136422000Y-55514300D01*
X137127800Y-46644200D02*
X136911700Y-46860300D01*
X121756300Y-43019400D02*
X122230100Y-43019400D01*
X122702900Y-53602900D02*
X122401300Y-53301300D01*
X128424400Y-52648600D02*
X126007000Y-52648600D01*
X120927200Y-47700000D02*
X120927200Y-43848500D01*
X123206000Y-54191300D02*
X123206000Y-54105500D01*
X125164000Y-41695500D02*
X125061000Y-41798700D01*
X130199000Y-41987200D02*
X130198700Y-41986900D01*
X131382000Y-41601300D02*
X130199000Y-41601300D01*
X122366500Y-47869400D02*
X122535500Y-48038400D01*
X127839000Y-56064500D02*
X127379000Y-56524400D01*
X136422000Y-53440500D02*
X135497400Y-52515500D01*
X123206000Y-54105500D02*
X122702900Y-53602900D01*
X137127800Y-45204700D02*
X137832500Y-44500000D01*
X135497400Y-52515400D02*
X136012800Y-52000000D01*
X121267500Y-47700000D02*
X120927200Y-47700000D01*
X140100000Y-52600000D02*
X140500000Y-53000000D01*
X127838800Y-56064500D02*
X130005300Y-56064500D01*
X135497400Y-52515400D02*
X134803800Y-51821800D01*
X125252000Y-55252000D02*
X124655100Y-55252000D01*
X122535500Y-48038400D02*
X122535500Y-48038800D01*
X125061000Y-41798700D02*
X123799000Y-41798700D01*
X136911700Y-46860300D02*
X135628800Y-46860300D01*
X130005300Y-56064500D02*
X130005300Y-54229500D01*
X127200000Y-57802500D02*
X127300000Y-57702500D01*
X139175000Y-52000000D02*
X139775000Y-52600000D01*
X127569500Y-56333900D02*
X127839000Y-56064500D01*
X140500000Y-53000000D02*
X140991000Y-53000000D01*
X141500000Y-52490800D02*
X141500000Y-52375000D01*
X147200000Y-37385000D02*
X145885000Y-38700000D01*
X145885000Y-38700000D02*
X145200000Y-38700000D01*
X122535500Y-48038800D02*
X122992300Y-48495600D01*
X127300000Y-56603300D02*
X127569500Y-56333900D01*
X116638000Y-48550000D02*
X116637500Y-48550000D01*
X130062300Y-58249800D02*
X130062000Y-58250000D01*
X137032200Y-48534500D02*
X137032200Y-46980800D01*
X126524000Y-56524400D02*
X125252000Y-55252000D01*
X135628800Y-46860300D02*
X135157400Y-47331700D01*
X136012800Y-52000000D02*
X136961500Y-52000000D01*
X122992300Y-48495600D02*
X123684600Y-48495600D01*
X140991000Y-53000000D02*
X141500000Y-52490800D01*
X137032200Y-46980800D02*
X136911700Y-46860300D01*
X117918000Y-48550000D02*
X118300000Y-48167500D01*
X135497400Y-52515500D02*
X135497400Y-52515400D01*
X122197000Y-47700000D02*
X122366500Y-47869400D01*
X126300000Y-57802500D02*
X127200000Y-57802500D01*
X131200000Y-58232500D02*
X130735100Y-58232500D01*
X120927200Y-43848500D02*
X121756300Y-43019400D01*
X130080000Y-58232500D02*
X130062300Y-58249800D01*
X139252800Y-46644200D02*
X137127800Y-46644200D01*
X137127800Y-45204700D02*
X136438600Y-45204700D01*
X141093100Y-51309700D02*
X141500000Y-51716600D01*
X127300000Y-57702500D02*
X127300000Y-56603300D01*
X139997300Y-45899700D02*
X139252800Y-46644200D01*
X130380000Y-42554300D02*
X130561200Y-42735500D01*
X125164100Y-41695500D02*
X125164000Y-41695500D01*
X121268000Y-47700000D02*
X122197000Y-47700000D01*
X123406000Y-55005600D02*
X123406000Y-54391400D01*
X136961500Y-48605200D02*
X137032200Y-48534500D01*
X132424500Y-41190600D02*
X131792700Y-41190600D01*
X130199000Y-41601300D02*
X130199000Y-41987200D01*
X130005300Y-54229500D02*
X128424400Y-52648600D01*
X130062000Y-58250000D02*
X130062000Y-58750000D01*
X127838800Y-56064600D02*
X127838800Y-56064500D01*
X136422000Y-54162900D02*
X136422500Y-54163400D01*
X122366500Y-47869400D02*
X122536000Y-48038800D01*
X136961500Y-52000000D02*
X136961500Y-48605200D01*
X121268000Y-47700000D02*
X121267500Y-47700000D01*
%TO.N,Net-(U1-PH0)*%
X133251000Y-56251500D02*
X132800000Y-55800000D01*
X132800000Y-55474900D02*
X132387500Y-55062600D01*
X132800000Y-55800000D02*
X132800000Y-55474900D01*
X133251000Y-56650000D02*
X133251500Y-56650500D01*
X133251000Y-56650000D02*
X133251000Y-56251500D01*
X131975400Y-54650500D02*
X131975400Y-54650300D01*
X132387500Y-55062600D02*
X131975400Y-54650500D01*
X132387500Y-55062600D02*
X131975000Y-54650300D01*
X133251500Y-56650500D02*
X133251500Y-57048500D01*
X133251000Y-57048500D02*
X133251000Y-56650000D01*
%TO.N,Net-(U1-PH1)*%
X134651500Y-55054100D02*
X134948500Y-55351100D01*
X134948500Y-55351100D02*
X134948500Y-55351500D01*
X134354000Y-54756700D02*
X132789000Y-54756700D01*
X132559000Y-54526700D02*
X132329000Y-54296700D01*
X132789000Y-54756700D02*
X132559000Y-54526700D01*
X134949000Y-55351500D02*
X134651500Y-55054100D01*
X132558900Y-54526700D02*
X132328900Y-54296700D01*
X134651500Y-55054100D02*
X134354000Y-54756700D01*
X132559000Y-54526700D02*
X132558900Y-54526700D01*
%TO.N,/STM32F405RGTx/PA10_RX1*%
X123805500Y-48948100D02*
X123173200Y-48948100D01*
X122599300Y-62900700D02*
X120500000Y-65000000D01*
X124303300Y-46271100D02*
X124728400Y-46696200D01*
X118639400Y-53481900D02*
X118639400Y-55552900D01*
X122498400Y-61740400D02*
X122599300Y-61841300D01*
X123173200Y-48948100D02*
X118639400Y-53481900D01*
X122498400Y-59411900D02*
X122498400Y-61740400D01*
X124728400Y-48025200D02*
X123805500Y-48948100D01*
X122599300Y-61841300D02*
X122599300Y-62900700D01*
X118639400Y-55552900D02*
X122498400Y-59411900D01*
X124728400Y-46696200D02*
X124728400Y-48025200D01*
%TO.N,/STM32F405RGTx/PA9_TX1*%
X123864300Y-49198900D02*
X123283100Y-49198900D01*
X122818200Y-63818200D02*
X124000000Y-65000000D01*
X123283100Y-49198900D02*
X118858300Y-53623700D01*
X118858300Y-55429500D02*
X122717300Y-59288500D01*
X122717300Y-61649700D02*
X122818200Y-61750600D01*
X125088000Y-47975200D02*
X123864300Y-49198900D01*
X125088000Y-46348700D02*
X125088000Y-47975200D01*
X122818200Y-61750600D02*
X122818200Y-63818200D01*
X124656800Y-45917500D02*
X125088000Y-46348700D01*
X122717300Y-59288500D02*
X122717300Y-61649700D01*
X118858300Y-53623700D02*
X118858300Y-55429500D01*
%TO.N,Net-(U1-BOOT0)*%
X124815400Y-59105400D02*
X123714900Y-59105400D01*
X120797500Y-56188000D02*
X120797500Y-55000000D01*
X123714900Y-59105400D02*
X120797500Y-56188000D01*
X126424600Y-54650300D02*
X126870000Y-54204900D01*
X126870000Y-54204900D02*
X127650000Y-54204900D01*
X127650000Y-54204900D02*
X127775700Y-54330600D01*
%TO.N,/STM32F405RGTx/PA7_MOSI1*%
X133743200Y-45917500D02*
X134182800Y-45477900D01*
X136313000Y-45477900D02*
X136500700Y-45665600D01*
X134182800Y-45477900D02*
X136313000Y-45477900D01*
%TO.N,/STM32F405RGTx/PA6_MISO1*%
X134096700Y-46271100D02*
X134649200Y-45718600D01*
X136532600Y-46270800D02*
X136679700Y-46270800D01*
X134649200Y-45718600D02*
X135980400Y-45718600D01*
X135980400Y-45718600D02*
X136532600Y-46270800D01*
%TO.N,/STM32F405RGTx/PA5_SCK1*%
X134946500Y-46128400D02*
X135560800Y-46128400D01*
X134450300Y-46624600D02*
X134946500Y-46128400D01*
%TO.N,Net-(U2-BOOT)*%
X138479000Y-46153400D02*
X140132000Y-44500000D01*
X140132500Y-44500000D02*
X140132000Y-44500000D01*
X138279000Y-46153400D02*
X138479000Y-46153400D01*
%TO.N,Net-(U2-VSNS)*%
X140700000Y-47790800D02*
X140700000Y-44189800D01*
X142402000Y-43835000D02*
X142235000Y-43667500D01*
X140459500Y-43949300D02*
X139814200Y-43949300D01*
X138279000Y-50211800D02*
X138279000Y-49963400D01*
X140700000Y-44189800D02*
X140459500Y-43949300D01*
X138279000Y-50211800D02*
X140700000Y-47790800D01*
X139578300Y-43277600D02*
X139870800Y-42985100D01*
X142402500Y-44168000D02*
X142402500Y-44500000D01*
X137500000Y-51402500D02*
X138279000Y-50623500D01*
X142235000Y-43667500D02*
X142067500Y-43500000D01*
X141552600Y-42985100D02*
X142067500Y-43500000D01*
X142402000Y-44167500D02*
X142402000Y-43835000D01*
X139578300Y-43713400D02*
X139578300Y-43277600D01*
X139814200Y-43949300D02*
X139578300Y-43713400D01*
X142235000Y-43667500D02*
X142068000Y-43500000D01*
X142402000Y-44500000D02*
X142402000Y-44167500D01*
X139870800Y-42985100D02*
X141552600Y-42985100D01*
X138279000Y-50623500D02*
X138279000Y-50211800D01*
X142402000Y-44167500D02*
X142402500Y-44168000D01*
D51*
%TO.N,Net-(D6-K)*%
X141500000Y-50000000D02*
X141500000Y-47484400D01*
D50*
X143229000Y-46153400D02*
X142921000Y-46153400D01*
D51*
X143830000Y-51270000D02*
X146200000Y-48900000D01*
X143830000Y-51400000D02*
X143830000Y-51270000D01*
X141500000Y-47484400D02*
X142831000Y-46153400D01*
X142831000Y-46153400D02*
X143229000Y-46153400D01*
X143830000Y-51400000D02*
X143830000Y-50920000D01*
D50*
X143830500Y-52070500D02*
X143830500Y-53220000D01*
X141633600Y-44865700D02*
X141633200Y-44865700D01*
D51*
X142103000Y-50603400D02*
X141500000Y-50000000D01*
X143830000Y-50920000D02*
X143514000Y-50603400D01*
X143830000Y-52070000D02*
X143830000Y-51400000D01*
D50*
X141633600Y-44865700D02*
X141268000Y-44500000D01*
D51*
X143830000Y-53220000D02*
X143830000Y-52070000D01*
D50*
X143830000Y-52070000D02*
X143830500Y-52070500D01*
X141633200Y-44865700D02*
X141267500Y-44500000D01*
D51*
X143514000Y-50603400D02*
X142103000Y-50603400D01*
D50*
X142921000Y-46153400D02*
X141633600Y-44865700D01*
%TO.N,VBUS*%
X114557000Y-50450000D02*
X115493000Y-50450000D01*
X115984000Y-49959500D02*
X117692000Y-49959500D01*
X114362500Y-50450000D02*
X114557000Y-50450000D01*
X114362500Y-48550000D02*
X114557000Y-48550000D01*
X115216000Y-49209000D02*
X115216000Y-49791000D01*
X114557000Y-50450000D02*
X114362500Y-50450000D01*
X114557000Y-48550000D02*
X115216000Y-49209000D01*
X115216000Y-49791000D02*
X114557000Y-50450000D01*
X117692000Y-49959500D02*
X118300000Y-50567500D01*
X115493000Y-50450000D02*
X115984000Y-49959500D01*
X114362000Y-48550000D02*
X114362500Y-48550000D01*
%TO.N,Net-(J1-D-)*%
X120402000Y-44000000D02*
X120402500Y-44000000D01*
%TO.N,Net-(J1-D+)*%
X120402000Y-45000000D02*
X120402500Y-45000000D01*
%TO.N,/STM32F405RGTx/PA4_NSS1*%
X134198600Y-47583400D02*
X134198600Y-47973400D01*
X134803800Y-46978200D02*
X134198600Y-47583400D01*
%TO.N,/STM32F405RGTx/PA3_RX2*%
X128219800Y-61570100D02*
X129559900Y-60230000D01*
X129559900Y-60230000D02*
X129790500Y-60230000D01*
X135864500Y-48038800D02*
X134815300Y-49088000D01*
X134815300Y-49088000D02*
X134404900Y-49088000D01*
%TO.N,/STM32F405RGTx/PA2_TX2*%
X134551500Y-50117800D02*
X134665700Y-50232000D01*
X134665700Y-50232000D02*
X135335300Y-50232000D01*
X135335300Y-50232000D02*
X135864500Y-50761200D01*
X132187800Y-61570100D02*
X134238400Y-59519500D01*
X131719800Y-61570100D02*
X132187800Y-61570100D01*
%TO.N,/STM32F405RGTx/PA1_RX4*%
X116150000Y-57350000D02*
X119751600Y-57350000D01*
X127376000Y-51901000D02*
X129345800Y-49931200D01*
X134919400Y-50523200D02*
X135510900Y-51114700D01*
X129345800Y-49931200D02*
X133791600Y-49931200D01*
X134383600Y-50523200D02*
X134919400Y-50523200D01*
X114000000Y-59500000D02*
X116150000Y-57350000D01*
X133791600Y-49931200D02*
X134383600Y-50523200D01*
%TO.N,/STM32F405RGTx/PA0_TX4*%
X134589100Y-50900000D02*
X133499998Y-50900000D01*
X135157400Y-51468300D02*
X134589100Y-50900000D01*
X121354700Y-63000000D02*
X122186800Y-62167900D01*
X114000000Y-63000000D02*
X121354700Y-63000000D01*
%TO.N,/STM32F405RGTx/PB10_TX3*%
X117085900Y-37084900D02*
X114415100Y-37084900D01*
X131621800Y-43796200D02*
X132220400Y-43197600D01*
X114415100Y-37084900D02*
X114000000Y-37500000D01*
X132220400Y-43197600D02*
X132608300Y-43197600D01*
%TO.N,/STM32F405RGTx/PC7_RX6*%
X134087900Y-63587900D02*
X124406100Y-63587900D01*
X135500000Y-65000000D02*
X134087900Y-63587900D01*
X124406100Y-63587900D02*
X123122700Y-62304500D01*
X126071100Y-44503300D02*
X126531800Y-44964000D01*
X126531800Y-44964000D02*
X126531800Y-45638700D01*
X126531800Y-45638700D02*
X126127900Y-46042600D01*
X123122700Y-62304500D02*
X123122700Y-61480200D01*
%TO.N,/STM32F405RGTx/PC6_TX6*%
X126253000Y-60094100D02*
X123892100Y-60094100D01*
X126861000Y-46511800D02*
X126861000Y-44586100D01*
X119077200Y-55279200D02*
X119077200Y-53753200D01*
X137362800Y-63362800D02*
X127360700Y-63362800D01*
X126645000Y-62647100D02*
X126645000Y-60486100D01*
X126645000Y-60486100D02*
X126253000Y-60094100D01*
X139000000Y-65000000D02*
X137362800Y-63362800D01*
X123892100Y-60094100D02*
X119077200Y-55279200D01*
X126861000Y-44586100D02*
X126424600Y-44149700D01*
X119077200Y-53753200D02*
X123412600Y-49417800D01*
X123955000Y-49417800D02*
X126861000Y-46511800D01*
X123412600Y-49417800D02*
X123955000Y-49417800D01*
X127360700Y-63362800D02*
X126645000Y-62647100D01*
%TO.N,Net-(U1-VCAP_1)*%
X132198700Y-41801600D02*
X132199000Y-41801300D01*
X130915000Y-43089100D02*
X130915000Y-43085300D01*
X130915000Y-43085300D02*
X132198700Y-41801600D01*
X130914700Y-43089100D02*
X130915000Y-43089100D01*
X132198700Y-41801600D02*
X132198700Y-41801300D01*
%TO.N,Net-(U1-VCAP_2)*%
X121703800Y-46500000D02*
X122889100Y-47685300D01*
X121467500Y-46500000D02*
X121703800Y-46500000D01*
D53*
%TO.N,/USB+*%
X123576000Y-46978200D02*
X121598000Y-45000000D01*
D50*
X121597500Y-45000000D02*
X121598000Y-45000000D01*
D53*
X123596000Y-46978200D02*
X123576000Y-46978200D01*
D50*
X123596000Y-46978200D02*
X123596200Y-46978200D01*
%TO.N,/USB-*%
X121597500Y-44000000D02*
X121598000Y-44000000D01*
D53*
X123360700Y-46035400D02*
X123950000Y-46624600D01*
X122182000Y-44856900D02*
X123360700Y-46035400D01*
D50*
X123949700Y-46624400D02*
X123949700Y-46624600D01*
X123360700Y-46035400D02*
X123949700Y-46624400D01*
D53*
X121598000Y-44000000D02*
X122182000Y-44584500D01*
X122182000Y-44584500D02*
X122182000Y-44856900D01*
D50*
%TO.N,+5V*%
X140932000Y-43500000D02*
X140000000Y-43500000D01*
X135900000Y-62300000D02*
X135219800Y-61619800D01*
X115300000Y-56500000D02*
X114900000Y-56900000D01*
D51*
X146780000Y-53469700D02*
X146780000Y-53719500D01*
X138570000Y-52597500D02*
X138600000Y-52567500D01*
D50*
X144100000Y-40185000D02*
X144100000Y-40600000D01*
X126700000Y-64200000D02*
X127500000Y-65000000D01*
X113200000Y-55200000D02*
X114000000Y-56000000D01*
X113200000Y-42700000D02*
X114000000Y-43500000D01*
X144100000Y-40600000D02*
X143800000Y-40900000D01*
X146780000Y-53469700D02*
X146780500Y-53469200D01*
X116500000Y-56500000D02*
X115300000Y-56500000D01*
D51*
X138600000Y-53900000D02*
X138500000Y-54000000D01*
X146780000Y-53719500D02*
X144000000Y-56500000D01*
X146780000Y-53220000D02*
X146780000Y-53469700D01*
X138600000Y-52567500D02*
X138600000Y-53900000D01*
D50*
X141700000Y-64200000D02*
X142500000Y-65000000D01*
X146780500Y-53469200D02*
X146780500Y-53220000D01*
D51*
X137500000Y-52597500D02*
X138570000Y-52597500D01*
D50*
X140932000Y-43500000D02*
X140932500Y-43500000D01*
X135219800Y-61619800D02*
X135219800Y-61570100D01*
%TO.N,/SDA1*%
X122726400Y-57683800D02*
X122695200Y-57683800D01*
X124461900Y-58559900D02*
X124064100Y-58559900D01*
X140500000Y-55144700D02*
X140500000Y-54825000D01*
X126502700Y-53865100D02*
X129054100Y-53865100D01*
X124064100Y-58559900D02*
X123366200Y-57862000D01*
X126300000Y-58997500D02*
X125911700Y-58997500D01*
X140500000Y-54825000D02*
X140325000Y-55000000D01*
X128538000Y-58250000D02*
X128537500Y-58250000D01*
X127048000Y-58250000D02*
X126300000Y-58997500D01*
X128061500Y-56921100D02*
X128211900Y-56770700D01*
X140325000Y-55000000D02*
X139000000Y-55000000D01*
X128061500Y-58250000D02*
X128061500Y-56921100D01*
X145900000Y-58500000D02*
X144505000Y-58500000D01*
X124983400Y-58700000D02*
X124602000Y-58700000D01*
X128061500Y-58250000D02*
X127048000Y-58250000D01*
X144505000Y-58500000D02*
X141288000Y-55283000D01*
X122695200Y-57683800D02*
X121752200Y-56740700D01*
X122904600Y-57862000D02*
X122726400Y-57683800D01*
X128537500Y-58250000D02*
X128061500Y-58250000D01*
X125911700Y-58997500D02*
X125773900Y-58859700D01*
X129054100Y-53865100D02*
X129598900Y-54409900D01*
X140638000Y-55283000D02*
X140500000Y-55144700D01*
X124602000Y-58700000D02*
X124461900Y-58559900D01*
X122144900Y-56348000D02*
X121752200Y-56740700D01*
X125143100Y-58859700D02*
X124983400Y-58700000D01*
X126071100Y-54296700D02*
X126502700Y-53865100D01*
X123366200Y-57862000D02*
X122904600Y-57862000D01*
X141288000Y-55283000D02*
X140638000Y-55283000D01*
X125773900Y-58859700D02*
X125143100Y-58859700D01*
%TO.N,/SCL1*%
X129977400Y-59843500D02*
X129958400Y-59824500D01*
X138500000Y-55500000D02*
X138500000Y-55124000D01*
X129958400Y-59824500D02*
X129020400Y-59824500D01*
X133180900Y-59125000D02*
X132479500Y-59826400D01*
X122938200Y-52654300D02*
X124695800Y-54411900D01*
X121752100Y-54859300D02*
X121637000Y-54859300D01*
X127985000Y-59262500D02*
X127732200Y-59515300D01*
X128550000Y-59262500D02*
X128550000Y-59605400D01*
X121003300Y-53896700D02*
X122245700Y-52654300D01*
X127665000Y-59262500D02*
X127300000Y-58897500D01*
X121637000Y-54859300D02*
X121003300Y-54225600D01*
X133843600Y-58554100D02*
X133272700Y-59125000D01*
X122144900Y-55252000D02*
X121752200Y-54859200D01*
X134059800Y-58449900D02*
X133955600Y-58554100D01*
X133955600Y-58554100D02*
X133843600Y-58554100D01*
X144000000Y-58301600D02*
X141198000Y-55500000D01*
X127985000Y-59262500D02*
X127665000Y-59262500D01*
X138500000Y-55124000D02*
X138362300Y-55261700D01*
X132408200Y-59826400D02*
X132341800Y-59892800D01*
X138362300Y-55261700D02*
X138096100Y-55261700D01*
X129978500Y-59844500D02*
X129977500Y-59843500D01*
X124695800Y-54411900D02*
X125248800Y-54411900D01*
X132479500Y-59826400D02*
X132408200Y-59826400D01*
X141198000Y-55500000D02*
X138738300Y-55500000D01*
X120715300Y-54225600D02*
X121003300Y-54225600D01*
X144000000Y-59600000D02*
X144000000Y-58301600D01*
X138096100Y-55261700D02*
X135973700Y-57384100D01*
X129977500Y-59843500D02*
X129977400Y-59843500D01*
X133272700Y-59125000D02*
X133180900Y-59125000D01*
X121752200Y-54859200D02*
X121752100Y-54859300D01*
X135973700Y-57384100D02*
X135134000Y-57384100D01*
X120272000Y-54668900D02*
X120715300Y-54225600D01*
X129979600Y-59845500D02*
X129978600Y-59844500D01*
X128550000Y-59262500D02*
X127985000Y-59262500D01*
X130027000Y-59892800D02*
X129979700Y-59845500D01*
X121003300Y-54225600D02*
X121003300Y-53896700D01*
X120272000Y-56004600D02*
X120272000Y-54668900D01*
X139400100Y-55500000D02*
X138500000Y-55500000D01*
X145900000Y-61500000D02*
X144000000Y-59600000D01*
X138500000Y-55124000D02*
X138500000Y-54735146D01*
X127732200Y-59515300D02*
X123782700Y-59515300D01*
X125248800Y-54411900D02*
X125717500Y-53943200D01*
X129020400Y-59824500D02*
X128801300Y-59605400D01*
X139135146Y-54100000D02*
X139775000Y-54100000D01*
X135134000Y-57384100D02*
X134068200Y-58449900D01*
X134068200Y-58449900D02*
X134059800Y-58449900D01*
X122245700Y-52654300D02*
X122938200Y-52654300D01*
X128801300Y-59605400D02*
X128550000Y-59605400D01*
X138500000Y-54735146D02*
X139135146Y-54100000D01*
X129978600Y-59844500D02*
X129978500Y-59844500D01*
X132341800Y-59892800D02*
X130027000Y-59892800D01*
X123782700Y-59515300D02*
X120272000Y-56004600D01*
X129979700Y-59845500D02*
X129979600Y-59845500D01*
%TO.N,/STM32F405RGTx/PC0*%
X133036100Y-53589600D02*
X133389600Y-53236100D01*
%TO.N,Net-(U5-BYP)*%
X122408000Y-54101300D02*
X122852000Y-54544900D01*
X121601300Y-54101300D02*
X122408000Y-54101300D01*
X121601000Y-54101300D02*
X121601300Y-54101300D01*
%TO.N,/LIS3DH_INT_PIN*%
X132406600Y-43718500D02*
X133429100Y-43718500D01*
X133429100Y-43718500D02*
X134341600Y-44631000D01*
X131975400Y-44149700D02*
X132406600Y-43718500D01*
X142225000Y-54600000D02*
X142358300Y-54600000D01*
X142358300Y-54600000D02*
X142850100Y-54108200D01*
X142850100Y-54108200D02*
X142850100Y-54080400D01*
%TO.N,/MMA8451_INT_PIN*%
X122402900Y-42578200D02*
X120568900Y-42578200D01*
X122635600Y-42810900D02*
X122402900Y-42578200D01*
X124262900Y-58077100D02*
X123594500Y-57408700D01*
X122635600Y-43189100D02*
X122635600Y-42810900D01*
X125010400Y-45563900D02*
X122635600Y-43189100D01*
X120568900Y-42578200D02*
X115710000Y-47437100D01*
%TO.N,/STM32F405RGTx/RST*%
X135333500Y-54121800D02*
X135577500Y-53877800D01*
X132230100Y-50519400D02*
X132412800Y-50336700D01*
X135333500Y-54121800D02*
X135578000Y-53877500D01*
X135089000Y-54366100D02*
X135333500Y-54121800D01*
X133105000Y-54366100D02*
X135089000Y-54366100D01*
X132683000Y-53943200D02*
X132682500Y-53943200D01*
X132683000Y-53943200D02*
X133105000Y-54366100D01*
X132682500Y-53943200D02*
X132230100Y-53490800D01*
X132230100Y-53490800D02*
X132230100Y-50519400D01*
X135577500Y-53877800D02*
X135577500Y-53877500D01*
D52*
%TO.N,/SS2*%
X127839000Y-42735500D02*
X127839000Y-41478100D01*
X127800000Y-40800000D02*
X127105000Y-40104500D01*
D50*
X127838800Y-42735500D02*
X127839000Y-42735500D01*
X125836000Y-40104500D02*
X125835900Y-40104500D01*
D52*
X127839000Y-41478100D02*
X127800000Y-41439300D01*
X127800000Y-41439300D02*
X127800000Y-40800000D01*
X127105000Y-40104500D02*
X125836000Y-40104500D01*
D50*
%TO.N,/SCK2*%
X126755100Y-41475800D02*
X126755100Y-41023700D01*
X126755000Y-42358900D02*
X126755000Y-41475900D01*
X127485000Y-43089100D02*
X126755000Y-42358900D01*
X126755000Y-41475900D02*
X126755000Y-41023700D01*
X127485300Y-43089100D02*
X127485000Y-43089100D01*
X126755000Y-41475900D02*
X126755100Y-41475800D01*
%TO.N,/MISO2*%
X127131700Y-43442600D02*
X126911000Y-43442600D01*
X127132000Y-43442600D02*
X127131700Y-43442600D01*
X125898800Y-42430000D02*
X125898600Y-42430000D01*
X125898800Y-42430000D02*
X125624000Y-42155100D01*
X126911000Y-43442600D02*
X125898800Y-42430000D01*
X125898600Y-42430000D02*
X125623700Y-42155100D01*
%TO.N,/MOSI2*%
X125982000Y-43000000D02*
X125800000Y-43000000D01*
X126778200Y-43796200D02*
X126778000Y-43796200D01*
X126778000Y-43796200D02*
X125982000Y-43000000D01*
X126295500Y-40564100D02*
X125837200Y-41022400D01*
%TO.N,Net-(D2-K)*%
X145000000Y-36302500D02*
X144100000Y-37202500D01*
X144100000Y-37202500D02*
X144100000Y-39215000D01*
%TO.N,Net-(D3-K)*%
X146312000Y-36415000D02*
X146200000Y-36302500D01*
X147200000Y-36415000D02*
X146312000Y-36415000D01*
%TO.N,Net-(D4-K)*%
X137045400Y-58657100D02*
X139702500Y-56000000D01*
X136142900Y-58657100D02*
X137045400Y-58657100D01*
%TO.N,/Stat_LED*%
X124656800Y-52882500D02*
X127827000Y-49712300D01*
X127827000Y-49712300D02*
X135029200Y-49712300D01*
X135369200Y-59255000D02*
X135369200Y-58625500D01*
X135457100Y-59342900D02*
X135369200Y-59255000D01*
X135029200Y-49712300D02*
X135143500Y-49826600D01*
%TO.N,/STM32F405RGTx/PA14_SWCLK*%
X122535500Y-50761200D02*
X123448200Y-49848500D01*
X123448200Y-49848500D02*
X124990400Y-49848500D01*
%TO.N,/STM32F405RGTx/PA13_SWDIO*%
X123242600Y-47331700D02*
X122505100Y-46594200D01*
X122505100Y-46594200D02*
X122398900Y-46594200D01*
%TO.N,/MOSI3*%
X126908500Y-49493400D02*
X134746500Y-49493400D01*
X125079800Y-51045300D02*
X125356600Y-51045300D01*
X134746500Y-49493400D02*
X135298900Y-48941000D01*
X135747400Y-48941000D02*
X135966300Y-48722100D01*
X123949700Y-52175400D02*
X125079800Y-51045300D01*
X125356600Y-51045300D02*
X126908500Y-49493400D01*
X135298900Y-48941000D02*
X135747400Y-48941000D01*
%TO.N,/MISO3*%
X129650500Y-46381100D02*
X125205200Y-50826400D01*
X125205200Y-50826400D02*
X124591600Y-50826400D01*
X132125800Y-46381100D02*
X129650500Y-46381100D01*
X124591600Y-50826400D02*
X123596200Y-51821800D01*
%TO.N,/SCK3*%
X129876700Y-45845200D02*
X125114400Y-50607500D01*
X124103400Y-50607500D02*
X123242600Y-51468300D01*
X125114400Y-50607500D02*
X124103400Y-50607500D01*
X129876700Y-44292600D02*
X129876700Y-45845200D01*
%TO.N,/SS3*%
X125023700Y-50388600D02*
X123615200Y-50388600D01*
X123615200Y-50388600D02*
X122889100Y-51114700D01*
X128969600Y-42818900D02*
X128969600Y-46442700D01*
X128969600Y-46442700D02*
X125023700Y-50388600D01*
%TD*%
M02*
