%TF.GenerationSoftware,KiCad,Pcbnew,7.0.6-7.0.6~ubuntu22.04.1*%
%TF.CreationDate,2023-07-18T23:37:18-07:00*%
%TF.ProjectId,NHz_F4_FC,4e487a5f-4634-45f4-9643-2e6b69636164,rev?*%
%TF.SameCoordinates,Original*%
%TF.FileFunction,Paste,Top*%
%TF.FilePolarity,Positive*%
%FSLAX46Y46*%
G04 Gerber Fmt 4.6, Leading zero omitted, Abs format (unit mm)*
G04 Created by KiCad (PCBNEW 7.0.6-7.0.6~ubuntu22.04.1) date 2023-07-18 23:37:18*
%MOMM*%
%LPD*%
G01*
G04 APERTURE LIST*
G04 Aperture macros list*
%AMRoundRect*
0 Rectangle with rounded corners*
0 $1 Rounding radius*
0 $2 $3 $4 $5 $6 $7 $8 $9 X,Y pos of 4 corners*
0 Add a 4 corners polygon primitive as box body*
4,1,4,$2,$3,$4,$5,$6,$7,$8,$9,$2,$3,0*
0 Add four circle primitives for the rounded corners*
1,1,$1+$1,$2,$3*
1,1,$1+$1,$4,$5*
1,1,$1+$1,$6,$7*
1,1,$1+$1,$8,$9*
0 Add four rect primitives between the rounded corners*
20,1,$1+$1,$2,$3,$4,$5,0*
20,1,$1+$1,$4,$5,$6,$7,0*
20,1,$1+$1,$6,$7,$8,$9,0*
20,1,$1+$1,$8,$9,$2,$3,0*%
%AMRotRect*
0 Rectangle, with rotation*
0 The origin of the aperture is its center*
0 $1 length*
0 $2 width*
0 $3 Rotation angle, in degrees counterclockwise*
0 Add horizontal line*
21,1,$1,$2,0,0,$3*%
G04 Aperture macros list end*
%ADD10RoundRect,0.150000X-0.512500X-0.150000X0.512500X-0.150000X0.512500X0.150000X-0.512500X0.150000X0*%
%ADD11RoundRect,0.087500X-0.187500X-0.087500X0.187500X-0.087500X0.187500X0.087500X-0.187500X0.087500X0*%
%ADD12RoundRect,0.087500X-0.087500X-0.187500X0.087500X-0.187500X0.087500X0.187500X-0.087500X0.187500X0*%
%ADD13RoundRect,0.155000X-0.212500X-0.155000X0.212500X-0.155000X0.212500X0.155000X-0.212500X0.155000X0*%
%ADD14RoundRect,0.125000X-1.125000X-1.125000X1.125000X-1.125000X1.125000X1.125000X-1.125000X1.125000X0*%
%ADD15RoundRect,0.160000X0.160000X-0.197500X0.160000X0.197500X-0.160000X0.197500X-0.160000X-0.197500X0*%
%ADD16R,1.150000X3.600000*%
%ADD17RoundRect,0.155000X0.155000X-0.212500X0.155000X0.212500X-0.155000X0.212500X-0.155000X-0.212500X0*%
%ADD18RoundRect,0.160000X0.252791X-0.026517X-0.026517X0.252791X-0.252791X0.026517X0.026517X-0.252791X0*%
%ADD19RoundRect,0.147500X-0.172500X0.147500X-0.172500X-0.147500X0.172500X-0.147500X0.172500X0.147500X0*%
%ADD20RoundRect,0.155000X-0.259862X0.040659X0.040659X-0.259862X0.259862X-0.040659X-0.040659X0.259862X0*%
%ADD21RoundRect,0.250000X0.475000X-0.250000X0.475000X0.250000X-0.475000X0.250000X-0.475000X-0.250000X0*%
%ADD22RoundRect,0.160000X-0.160000X0.197500X-0.160000X-0.197500X0.160000X-0.197500X0.160000X0.197500X0*%
%ADD23RoundRect,0.250000X0.650000X-1.000000X0.650000X1.000000X-0.650000X1.000000X-0.650000X-1.000000X0*%
%ADD24RoundRect,0.155000X0.040659X0.259862X-0.259862X-0.040659X-0.040659X-0.259862X0.259862X0.040659X0*%
%ADD25RoundRect,0.250000X-0.475000X0.250000X-0.475000X-0.250000X0.475000X-0.250000X0.475000X0.250000X0*%
%ADD26RoundRect,0.155000X0.212500X0.155000X-0.212500X0.155000X-0.212500X-0.155000X0.212500X-0.155000X0*%
%ADD27RotRect,0.500000X0.350000X45.000000*%
%ADD28RoundRect,0.160000X-0.197500X-0.160000X0.197500X-0.160000X0.197500X0.160000X-0.197500X0.160000X0*%
%ADD29RoundRect,0.225000X-0.225000X-0.250000X0.225000X-0.250000X0.225000X0.250000X-0.225000X0.250000X0*%
%ADD30RoundRect,0.160000X0.197500X0.160000X-0.197500X0.160000X-0.197500X-0.160000X0.197500X-0.160000X0*%
%ADD31RotRect,0.400000X1.900000X45.000000*%
%ADD32RoundRect,0.155000X0.259862X-0.040659X-0.040659X0.259862X-0.259862X0.040659X0.040659X-0.259862X0*%
%ADD33RoundRect,0.150000X0.150000X0.625000X-0.150000X0.625000X-0.150000X-0.625000X0.150000X-0.625000X0*%
%ADD34RoundRect,0.250000X0.350000X0.650000X-0.350000X0.650000X-0.350000X-0.650000X0.350000X-0.650000X0*%
%ADD35RoundRect,0.150000X-0.825000X-0.150000X0.825000X-0.150000X0.825000X0.150000X-0.825000X0.150000X0*%
%ADD36RoundRect,0.147500X-0.017678X0.226274X-0.226274X0.017678X0.017678X-0.226274X0.226274X-0.017678X0*%
%ADD37RoundRect,0.075000X0.548008X-0.441942X-0.441942X0.548008X-0.548008X0.441942X0.441942X-0.548008X0*%
%ADD38RoundRect,0.075000X0.548008X0.441942X0.441942X0.548008X-0.548008X-0.441942X-0.441942X-0.548008X0*%
%ADD39RoundRect,0.155000X-0.040659X-0.259862X0.259862X0.040659X0.040659X0.259862X-0.259862X-0.040659X0*%
%ADD40RoundRect,0.155000X-0.155000X0.212500X-0.155000X-0.212500X0.155000X-0.212500X0.155000X0.212500X0*%
%ADD41RotRect,0.300000X0.800000X225.000000*%
%ADD42RotRect,0.300000X0.800000X315.000000*%
%ADD43RotRect,0.300000X0.800000X45.000000*%
%ADD44RotRect,0.300000X0.800000X135.000000*%
%ADD45R,0.350000X0.375000*%
%ADD46R,0.375000X0.350000*%
G04 APERTURE END LIST*
D10*
%TO.C,U6*%
X114362500Y-48550000D03*
X114362500Y-49500000D03*
X114362500Y-50450000D03*
X116637500Y-50450000D03*
X116637500Y-48550000D03*
%TD*%
D11*
%TO.C,U4*%
X139775000Y-52600000D03*
X139775000Y-53100000D03*
X139775000Y-53600000D03*
X139775000Y-54100000D03*
X139775000Y-54600000D03*
D12*
X140500000Y-54825000D03*
X141000000Y-54825000D03*
X141500000Y-54825000D03*
D11*
X142225000Y-54600000D03*
X142225000Y-54100000D03*
X142225000Y-53600000D03*
X142225000Y-53100000D03*
X142225000Y-52600000D03*
D12*
X141500000Y-52375000D03*
X141000000Y-52375000D03*
X140500000Y-52375000D03*
%TD*%
D13*
%TO.C,C8*%
X120332500Y-46500000D03*
X121467500Y-46500000D03*
%TD*%
D14*
%TO.C,TP2*%
X124000000Y-65000000D03*
%TD*%
D15*
%TO.C,R10*%
X126300000Y-58997500D03*
X126300000Y-57802500D03*
%TD*%
D13*
%TO.C,C19*%
X141093100Y-51309700D03*
X142228100Y-51309700D03*
%TD*%
D16*
%TO.C,L1*%
X143830500Y-53220000D03*
X146780500Y-53220000D03*
%TD*%
D17*
%TO.C,C13*%
X118300000Y-50567500D03*
X118300000Y-49432500D03*
%TD*%
D18*
%TO.C,R2*%
X136422496Y-54722496D03*
X135577504Y-53877504D03*
%TD*%
D19*
%TO.C,D2*%
X144100000Y-39215000D03*
X144100000Y-40185000D03*
%TD*%
D20*
%TO.C,C18*%
X120798717Y-53298717D03*
X121601283Y-54101283D03*
%TD*%
D21*
%TO.C,C26*%
X145500000Y-42450000D03*
X145500000Y-40550000D03*
%TD*%
D22*
%TO.C,R4*%
X146200000Y-36302500D03*
X146200000Y-37497500D03*
%TD*%
D14*
%TO.C,TP24*%
X125000000Y-61500000D03*
%TD*%
D17*
%TO.C,C11*%
X138600000Y-52567500D03*
X138600000Y-51432500D03*
%TD*%
D14*
%TO.C,TP20*%
X135219800Y-61570100D03*
%TD*%
D23*
%TO.C,D6*%
X146200000Y-48900000D03*
X146200000Y-44900000D03*
%TD*%
D24*
%TO.C,C7*%
X133001283Y-40998717D03*
X132198717Y-41801283D03*
%TD*%
D17*
%TO.C,C12*%
X118300000Y-48167500D03*
X118300000Y-47032500D03*
%TD*%
D25*
%TO.C,C3*%
X134900000Y-39650000D03*
X134900000Y-41550000D03*
%TD*%
D14*
%TO.C,TP17*%
X142500000Y-65000000D03*
%TD*%
%TO.C,TP23*%
X117000000Y-65000000D03*
%TD*%
D19*
%TO.C,D3*%
X147200000Y-36415000D03*
X147200000Y-37385000D03*
%TD*%
D26*
%TO.C,C16*%
X121267500Y-47700000D03*
X120132500Y-47700000D03*
%TD*%
D15*
%TO.C,R11*%
X127300000Y-58897500D03*
X127300000Y-57702500D03*
%TD*%
%TO.C,R6*%
X137500000Y-52597500D03*
X137500000Y-51402500D03*
%TD*%
D14*
%TO.C,TP28*%
X114000000Y-43500000D03*
%TD*%
D27*
%TO.C,U3*%
X125376256Y-39644885D03*
X125835876Y-40104505D03*
X126295495Y-40564124D03*
X126755115Y-41023744D03*
X125623744Y-42155115D03*
X125164124Y-41695495D03*
X124704505Y-41235876D03*
X124244885Y-40776256D03*
%TD*%
D14*
%TO.C,TP27*%
X114000000Y-34500000D03*
%TD*%
D20*
%TO.C,C20*%
X123798717Y-41798717D03*
X124601283Y-42601283D03*
%TD*%
D28*
%TO.C,R5*%
X139702500Y-56000000D03*
X140897500Y-56000000D03*
%TD*%
D29*
%TO.C,C6*%
X140225000Y-34200000D03*
X141775000Y-34200000D03*
%TD*%
D26*
%TO.C,C9*%
X141282085Y-44529909D03*
X140147085Y-44529909D03*
%TD*%
D14*
%TO.C,TP26*%
X114000000Y-56000000D03*
%TD*%
%TO.C,TP10*%
X114000000Y-63000000D03*
%TD*%
%TO.C,TP13*%
X114000000Y-37500000D03*
%TD*%
%TO.C,TP14*%
X114000000Y-40500000D03*
%TD*%
D13*
%TO.C,C14*%
X137832500Y-44500000D03*
X138967500Y-44500000D03*
%TD*%
D26*
%TO.C,C25*%
X142067500Y-43500000D03*
X140932500Y-43500000D03*
%TD*%
D28*
%TO.C,R7*%
X142402500Y-44500000D03*
X143597500Y-44500000D03*
%TD*%
D30*
%TO.C,R1*%
X120797500Y-55000000D03*
X119602500Y-55000000D03*
%TD*%
D14*
%TO.C,TP11*%
X145900000Y-61500000D03*
%TD*%
D31*
%TO.C,Y1*%
X133251472Y-57048528D03*
X134100000Y-56200000D03*
X134948528Y-55351472D03*
%TD*%
D14*
%TO.C,TP16*%
X139000000Y-65000000D03*
%TD*%
%TO.C,TP1*%
X120500000Y-65000000D03*
%TD*%
%TO.C,TP21*%
X132000000Y-65000000D03*
%TD*%
D32*
%TO.C,C17*%
X122401283Y-53301283D03*
X121598717Y-52498717D03*
%TD*%
D33*
%TO.C,J2*%
X133250000Y-37250000D03*
X132250000Y-37250000D03*
X131250000Y-37250000D03*
X130250000Y-37250000D03*
X129250000Y-37250000D03*
X128250000Y-37250000D03*
X127250000Y-37250000D03*
X126250000Y-37250000D03*
D34*
X134550000Y-33375000D03*
X124950000Y-33375000D03*
%TD*%
D21*
%TO.C,C4*%
X136900000Y-36350000D03*
X136900000Y-34450000D03*
%TD*%
D29*
%TO.C,C5*%
X140225000Y-35700000D03*
X141775000Y-35700000D03*
%TD*%
D22*
%TO.C,R3*%
X145000000Y-36302500D03*
X145000000Y-37497500D03*
%TD*%
D14*
%TO.C,TP8*%
X131719800Y-61570100D03*
%TD*%
D35*
%TO.C,U2*%
X138279000Y-46153400D03*
X138279000Y-47423400D03*
X138279000Y-48693400D03*
X138279000Y-49963400D03*
X143229000Y-49963400D03*
X143229000Y-48693400D03*
X143229000Y-47423400D03*
X143229000Y-46153400D03*
%TD*%
D36*
%TO.C,D4*%
X136142947Y-58657053D03*
X135457053Y-59342947D03*
%TD*%
D37*
%TO.C,U1*%
X130561181Y-56064481D03*
X130914734Y-55710928D03*
X131268287Y-55357375D03*
X131621841Y-55003821D03*
X131975394Y-54650268D03*
X132328948Y-54296714D03*
X132682501Y-53943161D03*
X133036054Y-53589608D03*
X133389608Y-53236054D03*
X133743161Y-52882501D03*
X134096714Y-52528948D03*
X134450268Y-52175394D03*
X134803821Y-51821841D03*
X135157375Y-51468287D03*
X135510928Y-51114734D03*
X135864481Y-50761181D03*
D38*
X135864481Y-48038819D03*
X135510928Y-47685266D03*
X135157375Y-47331713D03*
X134803821Y-46978159D03*
X134450268Y-46624606D03*
X134096714Y-46271052D03*
X133743161Y-45917499D03*
X133389608Y-45563946D03*
X133036054Y-45210392D03*
X132682501Y-44856839D03*
X132328948Y-44503286D03*
X131975394Y-44149732D03*
X131621841Y-43796179D03*
X131268287Y-43442625D03*
X130914734Y-43089072D03*
X130561181Y-42735519D03*
D37*
X127838819Y-42735519D03*
X127485266Y-43089072D03*
X127131713Y-43442625D03*
X126778159Y-43796179D03*
X126424606Y-44149732D03*
X126071052Y-44503286D03*
X125717499Y-44856839D03*
X125363946Y-45210392D03*
X125010392Y-45563946D03*
X124656839Y-45917499D03*
X124303286Y-46271052D03*
X123949732Y-46624606D03*
X123596179Y-46978159D03*
X123242625Y-47331713D03*
X122889072Y-47685266D03*
X122535519Y-48038819D03*
D38*
X122535519Y-50761181D03*
X122889072Y-51114734D03*
X123242625Y-51468287D03*
X123596179Y-51821841D03*
X123949732Y-52175394D03*
X124303286Y-52528948D03*
X124656839Y-52882501D03*
X125010392Y-53236054D03*
X125363946Y-53589608D03*
X125717499Y-53943161D03*
X126071052Y-54296714D03*
X126424606Y-54650268D03*
X126778159Y-55003821D03*
X127131713Y-55357375D03*
X127485266Y-55710928D03*
X127838819Y-56064481D03*
%TD*%
D30*
%TO.C,R9*%
X121597500Y-44000000D03*
X120402500Y-44000000D03*
%TD*%
D28*
%TO.C,R8*%
X120402500Y-45000000D03*
X121597500Y-45000000D03*
%TD*%
D39*
%TO.C,C15*%
X130198717Y-41601283D03*
X131001283Y-40798717D03*
%TD*%
D40*
%TO.C,C21*%
X131200000Y-58232500D03*
X131200000Y-59367500D03*
%TD*%
D14*
%TO.C,TP15*%
X135500000Y-65000000D03*
%TD*%
%TO.C,TP9*%
X114000000Y-59500000D03*
%TD*%
%TO.C,TP19*%
X127500000Y-65000000D03*
%TD*%
D41*
%TO.C,U5*%
X123205546Y-54191332D03*
X122851992Y-54544885D03*
X122498439Y-54898439D03*
X122144885Y-55251992D03*
X121791332Y-55605546D03*
D42*
X122144885Y-56348008D03*
X122498439Y-56701561D03*
X122851992Y-57055115D03*
D43*
X123594454Y-57408668D03*
X123948008Y-57055115D03*
X124301561Y-56701561D03*
X124655115Y-56348008D03*
X125008668Y-55994454D03*
D44*
X124655115Y-55251992D03*
X124301561Y-54898439D03*
X123948008Y-54544885D03*
%TD*%
D14*
%TO.C,TP7*%
X128219800Y-61570100D03*
%TD*%
%TO.C,TP12*%
X145900000Y-58500000D03*
%TD*%
D45*
%TO.C,U7*%
X128550000Y-59262500D03*
X129050000Y-59262500D03*
X129550000Y-59262500D03*
X130050000Y-59262500D03*
D46*
X130062500Y-58750000D03*
X130062500Y-58250000D03*
D45*
X130050000Y-57737500D03*
X129550000Y-57737500D03*
X129050000Y-57737500D03*
X128550000Y-57737500D03*
D46*
X128537500Y-58250000D03*
X128537500Y-58750000D03*
%TD*%
M02*
