M48
; DRILL file {KiCad 7.0.6-7.0.6~ubuntu22.04.1} date Tue 18 Jul 2023 11:37:18 PM PDT
; FORMAT={-:-/ absolute / inch / decimal}
; #@! TF.CreationDate,2023-07-18T23:37:18-07:00
; #@! TF.GenerationSoftware,Kicad,Pcbnew,7.0.6-7.0.6~ubuntu22.04.1
; #@! TF.FileFunction,Plated,1,4,PTH
FMAT,2
INCH
; #@! TA.AperFunction,Plated,PTH,ViaDrill
T1C0.0118
; #@! TA.AperFunction,Plated,PTH,ComponentDrill
T2C0.0197
%
G90
G05
T1
X4.4528Y-1.3228
X4.4567Y-1.6811
X4.4567Y-2.1732
X4.4764Y-1.878
X4.4764Y-2.0197
X4.5236Y-1.3937
X4.5236Y-1.748
X4.5236Y-2.2402
X4.5555Y-1.8676
X4.5748Y-2.5276
X4.5866Y-2.2244
X4.6097Y-1.46
X4.6417Y-2.5945
X4.6575Y-1.9908
X4.6969Y-1.9567
X4.7008Y-1.8425
X4.7146Y-2.2579
X4.7402Y-1.7323
X4.7402Y-1.7717
X4.748Y-2.1063
X4.7795Y-2.0512
X4.8105Y-2.4476
X4.8122Y-1.6937
X4.8189Y-1.8344
X4.8474Y-2.4205
X4.8661Y-2.2008
X4.8695Y-1.9093
X4.8725Y-1.6773
X4.8898Y-2.3937
X4.8922Y-2.2865
X4.9055Y-1.689
X4.914Y-2.327
X4.9209Y-1.9625
X4.9213Y-1.4961
X4.9213Y-1.4961
X4.9213Y-1.5984
X4.9488Y-2.4488
X4.9528Y-1.6929
X4.9542Y-1.6151
X4.9609Y-2.0728
X4.9657Y-1.8127
X4.9882Y-2.5276
X5.0148Y-2.0433
X5.0305Y-2.139
X5.0394Y-1.9764
X5.0477Y-2.2351
X5.0512Y-2.5906
X5.0551Y-2.1457
X5.0775Y-1.6858
X5.0866Y-2.3031
X5.1023Y-2.1421
X5.1025Y-1.512
X5.1033Y-1.5965
X5.1043Y-1.5666
X5.1099Y-2.3713
X5.1133Y-1.7438
X5.1654Y-2.5276
X5.1749Y-1.5118
X5.1811Y-1.4213
X5.1977Y-1.6778
X5.2018Y-1.826
X5.2131Y-1.9818
X5.2208Y-1.7007
X5.2283Y-2.5906
X5.2362Y-2.0276
X5.2559Y-2.0039
X5.2559Y-2.185
X5.2834Y-1.8887
X5.285Y-2.3433
X5.289Y-1.7571
X5.2913Y-2.3937
X5.2915Y-1.9326
X5.2973Y-1.9731
X5.315Y-1.6378
X5.3206Y-1.9617
X5.3295Y-2.3081
X5.337Y-1.8161
X5.3504Y-2.4528
X5.353Y-1.9182
X5.3675Y-1.7487
X5.374Y-1.7979
X5.3787Y-1.8969
X5.3811Y-1.8217
X5.3898Y-1.3543
X5.4528Y-2.126
X5.4724Y-2.1654
X5.4921Y-2.0276
X5.493Y-1.6619
X5.5117Y-1.8071
X5.5118Y-1.7126
X5.5512Y-2.1063
X5.5709Y-2.2244
X5.5787Y-2.5276
X5.5827Y-1.3465
X5.5827Y-1.4055
X5.624Y-2.1291
X5.6299Y-1.7126
X5.6389Y-1.9171
X5.6417Y-2.5906
X5.6614Y-1.6102
X5.6693Y-2.2244
X5.6811Y-1.6299
X5.7087Y-1.4764
X5.7165Y-1.5236
X5.7559Y-1.4764
X5.7795Y-1.5866
X5.8118Y-1.9986
T2
G00X4.4886Y-1.8376
M15
G01X4.5161Y-1.8376
M16
G05
G00X4.4886Y-2.06
M15
G01X4.5161Y-2.06
M16
G05
T0
M30
