%TF.GenerationSoftware,KiCad,Pcbnew,7.0.6-7.0.6~ubuntu22.04.1*%
%TF.CreationDate,2023-07-18T23:37:18-07:00*%
%TF.ProjectId,NHz_F4_FC,4e487a5f-4634-45f4-9643-2e6b69636164,rev?*%
%TF.SameCoordinates,Original*%
%TF.FileFunction,Legend,Bot*%
%TF.FilePolarity,Positive*%
%FSLAX46Y46*%
G04 Gerber Fmt 4.6, Leading zero omitted, Abs format (unit mm)*
G04 Created by KiCad (PCBNEW 7.0.6-7.0.6~ubuntu22.04.1) date 2023-07-18 23:37:18*
%MOMM*%
%LPD*%
G01*
G04 APERTURE LIST*
G04 Aperture macros list*
%AMRoundRect*
0 Rectangle with rounded corners*
0 $1 Rounding radius*
0 $2 $3 $4 $5 $6 $7 $8 $9 X,Y pos of 4 corners*
0 Add a 4 corners polygon primitive as box body*
4,1,4,$2,$3,$4,$5,$6,$7,$8,$9,$2,$3,0*
0 Add four circle primitives for the rounded corners*
1,1,$1+$1,$2,$3*
1,1,$1+$1,$4,$5*
1,1,$1+$1,$6,$7*
1,1,$1+$1,$8,$9*
0 Add four rect primitives between the rounded corners*
20,1,$1+$1,$2,$3,$4,$5,0*
20,1,$1+$1,$4,$5,$6,$7,0*
20,1,$1+$1,$6,$7,$8,$9,0*
20,1,$1+$1,$8,$9,$2,$3,0*%
%AMRotRect*
0 Rectangle, with rotation*
0 The origin of the aperture is its center*
0 $1 length*
0 $2 width*
0 $3 Rotation angle, in degrees counterclockwise*
0 Add horizontal line*
21,1,$1,$2,0,0,$3*%
%AMFreePoly0*
4,1,9,0.800000,0.650000,0.550000,0.400000,0.550000,0.000000,1.050000,-0.350000,1.050000,-0.800000,-1.050000,-0.800000,-1.050000,0.800000,0.800000,0.800000,0.800000,0.650000,0.800000,0.650000,$1*%
%AMFreePoly1*
4,1,9,1.050000,-0.800000,-1.050000,-0.800000,-1.050000,-0.350000,-0.550000,0.000000,-0.550000,0.400000,-0.800000,0.650000,-0.800000,0.800000,1.050000,0.800000,1.050000,-0.800000,1.050000,-0.800000,$1*%
G04 Aperture macros list end*
%ADD10C,0.150000*%
%ADD11C,0.120000*%
%ADD12C,3.200000*%
%ADD13RoundRect,0.160000X0.197500X0.160000X-0.197500X0.160000X-0.197500X-0.160000X0.197500X-0.160000X0*%
%ADD14RoundRect,0.125000X1.125000X1.125000X-1.125000X1.125000X-1.125000X-1.125000X1.125000X-1.125000X0*%
%ADD15C,0.600000*%
%ADD16R,1.350000X0.400000*%
%ADD17FreePoly0,90.000000*%
%ADD18O,1.700000X1.000000*%
%ADD19R,1.900000X1.900000*%
%ADD20O,1.700000X0.850000*%
%ADD21FreePoly1,90.000000*%
%ADD22RoundRect,0.125000X-0.125000X0.125000X-0.125000X-0.125000X0.125000X-0.125000X0.125000X0.125000X0*%
%ADD23RoundRect,0.155000X-0.212500X-0.155000X0.212500X-0.155000X0.212500X0.155000X-0.212500X0.155000X0*%
%ADD24RoundRect,0.250000X0.650000X-1.000000X0.650000X1.000000X-0.650000X1.000000X-0.650000X-1.000000X0*%
%ADD25RotRect,1.000000X1.500000X45.000000*%
%ADD26RoundRect,0.155000X0.212500X0.155000X-0.212500X0.155000X-0.212500X-0.155000X0.212500X-0.155000X0*%
%ADD27RoundRect,0.237500X0.300000X0.237500X-0.300000X0.237500X-0.300000X-0.237500X0.300000X-0.237500X0*%
%ADD28RoundRect,0.160000X-0.197500X-0.160000X0.197500X-0.160000X0.197500X0.160000X-0.197500X0.160000X0*%
%ADD29R,0.900000X0.800000*%
%ADD30R,1.000000X1.500000*%
%ADD31RoundRect,0.155000X-0.155000X0.212500X-0.155000X-0.212500X0.155000X-0.212500X0.155000X0.212500X0*%
%ADD32RoundRect,0.100000X0.637500X0.100000X-0.637500X0.100000X-0.637500X-0.100000X0.637500X-0.100000X0*%
G04 APERTURE END LIST*
D10*
X144414285Y-45882057D02*
X144414285Y-44982057D01*
X144414285Y-44982057D02*
X144114285Y-45624914D01*
X144114285Y-45624914D02*
X143814285Y-44982057D01*
X143814285Y-44982057D02*
X143814285Y-45882057D01*
X143214285Y-44982057D02*
X143042857Y-44982057D01*
X143042857Y-44982057D02*
X142957142Y-45024914D01*
X142957142Y-45024914D02*
X142871428Y-45110628D01*
X142871428Y-45110628D02*
X142828571Y-45282057D01*
X142828571Y-45282057D02*
X142828571Y-45582057D01*
X142828571Y-45582057D02*
X142871428Y-45753485D01*
X142871428Y-45753485D02*
X142957142Y-45839200D01*
X142957142Y-45839200D02*
X143042857Y-45882057D01*
X143042857Y-45882057D02*
X143214285Y-45882057D01*
X143214285Y-45882057D02*
X143300000Y-45839200D01*
X143300000Y-45839200D02*
X143385714Y-45753485D01*
X143385714Y-45753485D02*
X143428571Y-45582057D01*
X143428571Y-45582057D02*
X143428571Y-45282057D01*
X143428571Y-45282057D02*
X143385714Y-45110628D01*
X143385714Y-45110628D02*
X143300000Y-45024914D01*
X143300000Y-45024914D02*
X143214285Y-44982057D01*
X142485714Y-45839200D02*
X142357143Y-45882057D01*
X142357143Y-45882057D02*
X142142857Y-45882057D01*
X142142857Y-45882057D02*
X142057143Y-45839200D01*
X142057143Y-45839200D02*
X142014285Y-45796342D01*
X142014285Y-45796342D02*
X141971428Y-45710628D01*
X141971428Y-45710628D02*
X141971428Y-45624914D01*
X141971428Y-45624914D02*
X142014285Y-45539200D01*
X142014285Y-45539200D02*
X142057143Y-45496342D01*
X142057143Y-45496342D02*
X142142857Y-45453485D01*
X142142857Y-45453485D02*
X142314285Y-45410628D01*
X142314285Y-45410628D02*
X142400000Y-45367771D01*
X142400000Y-45367771D02*
X142442857Y-45324914D01*
X142442857Y-45324914D02*
X142485714Y-45239200D01*
X142485714Y-45239200D02*
X142485714Y-45153485D01*
X142485714Y-45153485D02*
X142442857Y-45067771D01*
X142442857Y-45067771D02*
X142400000Y-45024914D01*
X142400000Y-45024914D02*
X142314285Y-44982057D01*
X142314285Y-44982057D02*
X142100000Y-44982057D01*
X142100000Y-44982057D02*
X141971428Y-45024914D01*
X141585714Y-45882057D02*
X141585714Y-44982057D01*
X144328571Y-38982057D02*
X143771428Y-38982057D01*
X143771428Y-38982057D02*
X144071428Y-39324914D01*
X144071428Y-39324914D02*
X143942857Y-39324914D01*
X143942857Y-39324914D02*
X143857143Y-39367771D01*
X143857143Y-39367771D02*
X143814285Y-39410628D01*
X143814285Y-39410628D02*
X143771428Y-39496342D01*
X143771428Y-39496342D02*
X143771428Y-39710628D01*
X143771428Y-39710628D02*
X143814285Y-39796342D01*
X143814285Y-39796342D02*
X143857143Y-39839200D01*
X143857143Y-39839200D02*
X143942857Y-39882057D01*
X143942857Y-39882057D02*
X144200000Y-39882057D01*
X144200000Y-39882057D02*
X144285714Y-39839200D01*
X144285714Y-39839200D02*
X144328571Y-39796342D01*
X143385714Y-39796342D02*
X143342857Y-39839200D01*
X143342857Y-39839200D02*
X143385714Y-39882057D01*
X143385714Y-39882057D02*
X143428571Y-39839200D01*
X143428571Y-39839200D02*
X143385714Y-39796342D01*
X143385714Y-39796342D02*
X143385714Y-39882057D01*
X143042857Y-38982057D02*
X142485714Y-38982057D01*
X142485714Y-38982057D02*
X142785714Y-39324914D01*
X142785714Y-39324914D02*
X142657143Y-39324914D01*
X142657143Y-39324914D02*
X142571429Y-39367771D01*
X142571429Y-39367771D02*
X142528571Y-39410628D01*
X142528571Y-39410628D02*
X142485714Y-39496342D01*
X142485714Y-39496342D02*
X142485714Y-39710628D01*
X142485714Y-39710628D02*
X142528571Y-39796342D01*
X142528571Y-39796342D02*
X142571429Y-39839200D01*
X142571429Y-39839200D02*
X142657143Y-39882057D01*
X142657143Y-39882057D02*
X142914286Y-39882057D01*
X142914286Y-39882057D02*
X143000000Y-39839200D01*
X143000000Y-39839200D02*
X143042857Y-39796342D01*
X142228571Y-38982057D02*
X141928571Y-39882057D01*
X141928571Y-39882057D02*
X141628571Y-38982057D01*
X130421428Y-50382057D02*
X130421428Y-49482057D01*
X130421428Y-49482057D02*
X130207142Y-49482057D01*
X130207142Y-49482057D02*
X130078571Y-49524914D01*
X130078571Y-49524914D02*
X129992856Y-49610628D01*
X129992856Y-49610628D02*
X129949999Y-49696342D01*
X129949999Y-49696342D02*
X129907142Y-49867771D01*
X129907142Y-49867771D02*
X129907142Y-49996342D01*
X129907142Y-49996342D02*
X129949999Y-50167771D01*
X129949999Y-50167771D02*
X129992856Y-50253485D01*
X129992856Y-50253485D02*
X130078571Y-50339200D01*
X130078571Y-50339200D02*
X130207142Y-50382057D01*
X130207142Y-50382057D02*
X130421428Y-50382057D01*
X129521428Y-50382057D02*
X129521428Y-49482057D01*
X128921428Y-49482057D02*
X128750000Y-49482057D01*
X128750000Y-49482057D02*
X128664285Y-49524914D01*
X128664285Y-49524914D02*
X128578571Y-49610628D01*
X128578571Y-49610628D02*
X128535714Y-49782057D01*
X128535714Y-49782057D02*
X128535714Y-50082057D01*
X128535714Y-50082057D02*
X128578571Y-50253485D01*
X128578571Y-50253485D02*
X128664285Y-50339200D01*
X128664285Y-50339200D02*
X128750000Y-50382057D01*
X128750000Y-50382057D02*
X128921428Y-50382057D01*
X128921428Y-50382057D02*
X129007143Y-50339200D01*
X129007143Y-50339200D02*
X129092857Y-50253485D01*
X129092857Y-50253485D02*
X129135714Y-50082057D01*
X129135714Y-50082057D02*
X129135714Y-49782057D01*
X129135714Y-49782057D02*
X129092857Y-49610628D01*
X129092857Y-49610628D02*
X129007143Y-49524914D01*
X129007143Y-49524914D02*
X128921428Y-49482057D01*
X132992856Y-50382057D02*
X133292856Y-49953485D01*
X133507142Y-50382057D02*
X133507142Y-49482057D01*
X133507142Y-49482057D02*
X133164285Y-49482057D01*
X133164285Y-49482057D02*
X133078570Y-49524914D01*
X133078570Y-49524914D02*
X133035713Y-49567771D01*
X133035713Y-49567771D02*
X132992856Y-49653485D01*
X132992856Y-49653485D02*
X132992856Y-49782057D01*
X132992856Y-49782057D02*
X133035713Y-49867771D01*
X133035713Y-49867771D02*
X133078570Y-49910628D01*
X133078570Y-49910628D02*
X133164285Y-49953485D01*
X133164285Y-49953485D02*
X133507142Y-49953485D01*
X132649999Y-50339200D02*
X132521428Y-50382057D01*
X132521428Y-50382057D02*
X132307142Y-50382057D01*
X132307142Y-50382057D02*
X132221428Y-50339200D01*
X132221428Y-50339200D02*
X132178570Y-50296342D01*
X132178570Y-50296342D02*
X132135713Y-50210628D01*
X132135713Y-50210628D02*
X132135713Y-50124914D01*
X132135713Y-50124914D02*
X132178570Y-50039200D01*
X132178570Y-50039200D02*
X132221428Y-49996342D01*
X132221428Y-49996342D02*
X132307142Y-49953485D01*
X132307142Y-49953485D02*
X132478570Y-49910628D01*
X132478570Y-49910628D02*
X132564285Y-49867771D01*
X132564285Y-49867771D02*
X132607142Y-49824914D01*
X132607142Y-49824914D02*
X132649999Y-49739200D01*
X132649999Y-49739200D02*
X132649999Y-49653485D01*
X132649999Y-49653485D02*
X132607142Y-49567771D01*
X132607142Y-49567771D02*
X132564285Y-49524914D01*
X132564285Y-49524914D02*
X132478570Y-49482057D01*
X132478570Y-49482057D02*
X132264285Y-49482057D01*
X132264285Y-49482057D02*
X132135713Y-49524914D01*
X131878570Y-49482057D02*
X131364285Y-49482057D01*
X131621427Y-50382057D02*
X131621427Y-49482057D01*
X144157142Y-48839200D02*
X144028571Y-48882057D01*
X144028571Y-48882057D02*
X143814285Y-48882057D01*
X143814285Y-48882057D02*
X143728571Y-48839200D01*
X143728571Y-48839200D02*
X143685713Y-48796342D01*
X143685713Y-48796342D02*
X143642856Y-48710628D01*
X143642856Y-48710628D02*
X143642856Y-48624914D01*
X143642856Y-48624914D02*
X143685713Y-48539200D01*
X143685713Y-48539200D02*
X143728571Y-48496342D01*
X143728571Y-48496342D02*
X143814285Y-48453485D01*
X143814285Y-48453485D02*
X143985713Y-48410628D01*
X143985713Y-48410628D02*
X144071428Y-48367771D01*
X144071428Y-48367771D02*
X144114285Y-48324914D01*
X144114285Y-48324914D02*
X144157142Y-48239200D01*
X144157142Y-48239200D02*
X144157142Y-48153485D01*
X144157142Y-48153485D02*
X144114285Y-48067771D01*
X144114285Y-48067771D02*
X144071428Y-48024914D01*
X144071428Y-48024914D02*
X143985713Y-47982057D01*
X143985713Y-47982057D02*
X143771428Y-47982057D01*
X143771428Y-47982057D02*
X143642856Y-48024914D01*
X142742856Y-48796342D02*
X142785713Y-48839200D01*
X142785713Y-48839200D02*
X142914285Y-48882057D01*
X142914285Y-48882057D02*
X142999999Y-48882057D01*
X142999999Y-48882057D02*
X143128570Y-48839200D01*
X143128570Y-48839200D02*
X143214285Y-48753485D01*
X143214285Y-48753485D02*
X143257142Y-48667771D01*
X143257142Y-48667771D02*
X143299999Y-48496342D01*
X143299999Y-48496342D02*
X143299999Y-48367771D01*
X143299999Y-48367771D02*
X143257142Y-48196342D01*
X143257142Y-48196342D02*
X143214285Y-48110628D01*
X143214285Y-48110628D02*
X143128570Y-48024914D01*
X143128570Y-48024914D02*
X142999999Y-47982057D01*
X142999999Y-47982057D02*
X142914285Y-47982057D01*
X142914285Y-47982057D02*
X142785713Y-48024914D01*
X142785713Y-48024914D02*
X142742856Y-48067771D01*
X142357142Y-48882057D02*
X142357142Y-47982057D01*
X141842856Y-48882057D02*
X142228570Y-48367771D01*
X141842856Y-47982057D02*
X142357142Y-48496342D01*
X144114285Y-54782057D02*
X144114285Y-53882057D01*
X144114285Y-53882057D02*
X143599999Y-54782057D01*
X143599999Y-54782057D02*
X143599999Y-53882057D01*
X143214285Y-54739200D02*
X143085714Y-54782057D01*
X143085714Y-54782057D02*
X142871428Y-54782057D01*
X142871428Y-54782057D02*
X142785714Y-54739200D01*
X142785714Y-54739200D02*
X142742856Y-54696342D01*
X142742856Y-54696342D02*
X142699999Y-54610628D01*
X142699999Y-54610628D02*
X142699999Y-54524914D01*
X142699999Y-54524914D02*
X142742856Y-54439200D01*
X142742856Y-54439200D02*
X142785714Y-54396342D01*
X142785714Y-54396342D02*
X142871428Y-54353485D01*
X142871428Y-54353485D02*
X143042856Y-54310628D01*
X143042856Y-54310628D02*
X143128571Y-54267771D01*
X143128571Y-54267771D02*
X143171428Y-54224914D01*
X143171428Y-54224914D02*
X143214285Y-54139200D01*
X143214285Y-54139200D02*
X143214285Y-54053485D01*
X143214285Y-54053485D02*
X143171428Y-53967771D01*
X143171428Y-53967771D02*
X143128571Y-53924914D01*
X143128571Y-53924914D02*
X143042856Y-53882057D01*
X143042856Y-53882057D02*
X142828571Y-53882057D01*
X142828571Y-53882057D02*
X142699999Y-53924914D01*
X142357142Y-54739200D02*
X142228571Y-54782057D01*
X142228571Y-54782057D02*
X142014285Y-54782057D01*
X142014285Y-54782057D02*
X141928571Y-54739200D01*
X141928571Y-54739200D02*
X141885713Y-54696342D01*
X141885713Y-54696342D02*
X141842856Y-54610628D01*
X141842856Y-54610628D02*
X141842856Y-54524914D01*
X141842856Y-54524914D02*
X141885713Y-54439200D01*
X141885713Y-54439200D02*
X141928571Y-54396342D01*
X141928571Y-54396342D02*
X142014285Y-54353485D01*
X142014285Y-54353485D02*
X142185713Y-54310628D01*
X142185713Y-54310628D02*
X142271428Y-54267771D01*
X142271428Y-54267771D02*
X142314285Y-54224914D01*
X142314285Y-54224914D02*
X142357142Y-54139200D01*
X142357142Y-54139200D02*
X142357142Y-54053485D01*
X142357142Y-54053485D02*
X142314285Y-53967771D01*
X142314285Y-53967771D02*
X142271428Y-53924914D01*
X142271428Y-53924914D02*
X142185713Y-53882057D01*
X142185713Y-53882057D02*
X141971428Y-53882057D01*
X141971428Y-53882057D02*
X141842856Y-53924914D01*
X144414285Y-42882057D02*
X144414285Y-41982057D01*
X144414285Y-41982057D02*
X144114285Y-42624914D01*
X144114285Y-42624914D02*
X143814285Y-41982057D01*
X143814285Y-41982057D02*
X143814285Y-42882057D01*
X143385714Y-42882057D02*
X143385714Y-41982057D01*
X143000000Y-42839200D02*
X142871429Y-42882057D01*
X142871429Y-42882057D02*
X142657143Y-42882057D01*
X142657143Y-42882057D02*
X142571429Y-42839200D01*
X142571429Y-42839200D02*
X142528571Y-42796342D01*
X142528571Y-42796342D02*
X142485714Y-42710628D01*
X142485714Y-42710628D02*
X142485714Y-42624914D01*
X142485714Y-42624914D02*
X142528571Y-42539200D01*
X142528571Y-42539200D02*
X142571429Y-42496342D01*
X142571429Y-42496342D02*
X142657143Y-42453485D01*
X142657143Y-42453485D02*
X142828571Y-42410628D01*
X142828571Y-42410628D02*
X142914286Y-42367771D01*
X142914286Y-42367771D02*
X142957143Y-42324914D01*
X142957143Y-42324914D02*
X143000000Y-42239200D01*
X143000000Y-42239200D02*
X143000000Y-42153485D01*
X143000000Y-42153485D02*
X142957143Y-42067771D01*
X142957143Y-42067771D02*
X142914286Y-42024914D01*
X142914286Y-42024914D02*
X142828571Y-41982057D01*
X142828571Y-41982057D02*
X142614286Y-41982057D01*
X142614286Y-41982057D02*
X142485714Y-42024914D01*
X141928571Y-41982057D02*
X141757143Y-41982057D01*
X141757143Y-41982057D02*
X141671428Y-42024914D01*
X141671428Y-42024914D02*
X141585714Y-42110628D01*
X141585714Y-42110628D02*
X141542857Y-42282057D01*
X141542857Y-42282057D02*
X141542857Y-42582057D01*
X141542857Y-42582057D02*
X141585714Y-42753485D01*
X141585714Y-42753485D02*
X141671428Y-42839200D01*
X141671428Y-42839200D02*
X141757143Y-42882057D01*
X141757143Y-42882057D02*
X141928571Y-42882057D01*
X141928571Y-42882057D02*
X142014286Y-42839200D01*
X142014286Y-42839200D02*
X142100000Y-42753485D01*
X142100000Y-42753485D02*
X142142857Y-42582057D01*
X142142857Y-42582057D02*
X142142857Y-42282057D01*
X142142857Y-42282057D02*
X142100000Y-42110628D01*
X142100000Y-42110628D02*
X142014286Y-42024914D01*
X142014286Y-42024914D02*
X141928571Y-41982057D01*
X127035713Y-50296342D02*
X127078570Y-50339200D01*
X127078570Y-50339200D02*
X127207142Y-50382057D01*
X127207142Y-50382057D02*
X127292856Y-50382057D01*
X127292856Y-50382057D02*
X127421427Y-50339200D01*
X127421427Y-50339200D02*
X127507142Y-50253485D01*
X127507142Y-50253485D02*
X127549999Y-50167771D01*
X127549999Y-50167771D02*
X127592856Y-49996342D01*
X127592856Y-49996342D02*
X127592856Y-49867771D01*
X127592856Y-49867771D02*
X127549999Y-49696342D01*
X127549999Y-49696342D02*
X127507142Y-49610628D01*
X127507142Y-49610628D02*
X127421427Y-49524914D01*
X127421427Y-49524914D02*
X127292856Y-49482057D01*
X127292856Y-49482057D02*
X127207142Y-49482057D01*
X127207142Y-49482057D02*
X127078570Y-49524914D01*
X127078570Y-49524914D02*
X127035713Y-49567771D01*
X126221427Y-50382057D02*
X126649999Y-50382057D01*
X126649999Y-50382057D02*
X126649999Y-49482057D01*
X125921428Y-50382057D02*
X125921428Y-49482057D01*
X125407142Y-50382057D02*
X125792856Y-49867771D01*
X125407142Y-49482057D02*
X125921428Y-49996342D01*
X143685713Y-51024914D02*
X143771428Y-50982057D01*
X143771428Y-50982057D02*
X143899999Y-50982057D01*
X143899999Y-50982057D02*
X144028570Y-51024914D01*
X144028570Y-51024914D02*
X144114285Y-51110628D01*
X144114285Y-51110628D02*
X144157142Y-51196342D01*
X144157142Y-51196342D02*
X144199999Y-51367771D01*
X144199999Y-51367771D02*
X144199999Y-51496342D01*
X144199999Y-51496342D02*
X144157142Y-51667771D01*
X144157142Y-51667771D02*
X144114285Y-51753485D01*
X144114285Y-51753485D02*
X144028570Y-51839200D01*
X144028570Y-51839200D02*
X143899999Y-51882057D01*
X143899999Y-51882057D02*
X143814285Y-51882057D01*
X143814285Y-51882057D02*
X143685713Y-51839200D01*
X143685713Y-51839200D02*
X143642856Y-51796342D01*
X143642856Y-51796342D02*
X143642856Y-51496342D01*
X143642856Y-51496342D02*
X143814285Y-51496342D01*
X143257142Y-51882057D02*
X143257142Y-50982057D01*
X143257142Y-50982057D02*
X142742856Y-51882057D01*
X142742856Y-51882057D02*
X142742856Y-50982057D01*
X142314285Y-51882057D02*
X142314285Y-50982057D01*
X142314285Y-50982057D02*
X142099999Y-50982057D01*
X142099999Y-50982057D02*
X141971428Y-51024914D01*
X141971428Y-51024914D02*
X141885713Y-51110628D01*
X141885713Y-51110628D02*
X141842856Y-51196342D01*
X141842856Y-51196342D02*
X141799999Y-51367771D01*
X141799999Y-51367771D02*
X141799999Y-51496342D01*
X141799999Y-51496342D02*
X141842856Y-51667771D01*
X141842856Y-51667771D02*
X141885713Y-51753485D01*
X141885713Y-51753485D02*
X141971428Y-51839200D01*
X141971428Y-51839200D02*
X142099999Y-51882057D01*
X142099999Y-51882057D02*
X142314285Y-51882057D01*
X119142857Y-35954819D02*
X119476190Y-35478628D01*
X119714285Y-35954819D02*
X119714285Y-34954819D01*
X119714285Y-34954819D02*
X119333333Y-34954819D01*
X119333333Y-34954819D02*
X119238095Y-35002438D01*
X119238095Y-35002438D02*
X119190476Y-35050057D01*
X119190476Y-35050057D02*
X119142857Y-35145295D01*
X119142857Y-35145295D02*
X119142857Y-35288152D01*
X119142857Y-35288152D02*
X119190476Y-35383390D01*
X119190476Y-35383390D02*
X119238095Y-35431009D01*
X119238095Y-35431009D02*
X119333333Y-35478628D01*
X119333333Y-35478628D02*
X119714285Y-35478628D01*
X118190476Y-35954819D02*
X118761904Y-35954819D01*
X118476190Y-35954819D02*
X118476190Y-34954819D01*
X118476190Y-34954819D02*
X118571428Y-35097676D01*
X118571428Y-35097676D02*
X118666666Y-35192914D01*
X118666666Y-35192914D02*
X118761904Y-35240533D01*
X117857142Y-34954819D02*
X117238095Y-34954819D01*
X117238095Y-34954819D02*
X117571428Y-35335771D01*
X117571428Y-35335771D02*
X117428571Y-35335771D01*
X117428571Y-35335771D02*
X117333333Y-35383390D01*
X117333333Y-35383390D02*
X117285714Y-35431009D01*
X117285714Y-35431009D02*
X117238095Y-35526247D01*
X117238095Y-35526247D02*
X117238095Y-35764342D01*
X117238095Y-35764342D02*
X117285714Y-35859580D01*
X117285714Y-35859580D02*
X117333333Y-35907200D01*
X117333333Y-35907200D02*
X117428571Y-35954819D01*
X117428571Y-35954819D02*
X117714285Y-35954819D01*
X117714285Y-35954819D02*
X117809523Y-35907200D01*
X117809523Y-35907200D02*
X117857142Y-35859580D01*
X118704819Y-49166666D02*
X119419104Y-49166666D01*
X119419104Y-49166666D02*
X119561961Y-49119047D01*
X119561961Y-49119047D02*
X119657200Y-49023809D01*
X119657200Y-49023809D02*
X119704819Y-48880952D01*
X119704819Y-48880952D02*
X119704819Y-48785714D01*
X119704819Y-50166666D02*
X119704819Y-49595238D01*
X119704819Y-49880952D02*
X118704819Y-49880952D01*
X118704819Y-49880952D02*
X118847676Y-49785714D01*
X118847676Y-49785714D02*
X118942914Y-49690476D01*
X118942914Y-49690476D02*
X118990533Y-49595238D01*
X116104819Y-55261905D02*
X115104819Y-55261905D01*
X115104819Y-55261905D02*
X115104819Y-55500000D01*
X115104819Y-55500000D02*
X115152438Y-55642857D01*
X115152438Y-55642857D02*
X115247676Y-55738095D01*
X115247676Y-55738095D02*
X115342914Y-55785714D01*
X115342914Y-55785714D02*
X115533390Y-55833333D01*
X115533390Y-55833333D02*
X115676247Y-55833333D01*
X115676247Y-55833333D02*
X115866723Y-55785714D01*
X115866723Y-55785714D02*
X115961961Y-55738095D01*
X115961961Y-55738095D02*
X116057200Y-55642857D01*
X116057200Y-55642857D02*
X116104819Y-55500000D01*
X116104819Y-55500000D02*
X116104819Y-55261905D01*
X115104819Y-56738095D02*
X115104819Y-56261905D01*
X115104819Y-56261905D02*
X115581009Y-56214286D01*
X115581009Y-56214286D02*
X115533390Y-56261905D01*
X115533390Y-56261905D02*
X115485771Y-56357143D01*
X115485771Y-56357143D02*
X115485771Y-56595238D01*
X115485771Y-56595238D02*
X115533390Y-56690476D01*
X115533390Y-56690476D02*
X115581009Y-56738095D01*
X115581009Y-56738095D02*
X115676247Y-56785714D01*
X115676247Y-56785714D02*
X115914342Y-56785714D01*
X115914342Y-56785714D02*
X116009580Y-56738095D01*
X116009580Y-56738095D02*
X116057200Y-56690476D01*
X116057200Y-56690476D02*
X116104819Y-56595238D01*
X116104819Y-56595238D02*
X116104819Y-56357143D01*
X116104819Y-56357143D02*
X116057200Y-56261905D01*
X116057200Y-56261905D02*
X116009580Y-56214286D01*
X137666666Y-34859580D02*
X137714285Y-34907200D01*
X137714285Y-34907200D02*
X137857142Y-34954819D01*
X137857142Y-34954819D02*
X137952380Y-34954819D01*
X137952380Y-34954819D02*
X138095237Y-34907200D01*
X138095237Y-34907200D02*
X138190475Y-34811961D01*
X138190475Y-34811961D02*
X138238094Y-34716723D01*
X138238094Y-34716723D02*
X138285713Y-34526247D01*
X138285713Y-34526247D02*
X138285713Y-34383390D01*
X138285713Y-34383390D02*
X138238094Y-34192914D01*
X138238094Y-34192914D02*
X138190475Y-34097676D01*
X138190475Y-34097676D02*
X138095237Y-34002438D01*
X138095237Y-34002438D02*
X137952380Y-33954819D01*
X137952380Y-33954819D02*
X137857142Y-33954819D01*
X137857142Y-33954819D02*
X137714285Y-34002438D01*
X137714285Y-34002438D02*
X137666666Y-34050057D01*
X136714285Y-34954819D02*
X137285713Y-34954819D01*
X136999999Y-34954819D02*
X136999999Y-33954819D01*
X136999999Y-33954819D02*
X137095237Y-34097676D01*
X137095237Y-34097676D02*
X137190475Y-34192914D01*
X137190475Y-34192914D02*
X137285713Y-34240533D01*
X141454819Y-46761905D02*
X140454819Y-46761905D01*
X140454819Y-46761905D02*
X140454819Y-47000000D01*
X140454819Y-47000000D02*
X140502438Y-47142857D01*
X140502438Y-47142857D02*
X140597676Y-47238095D01*
X140597676Y-47238095D02*
X140692914Y-47285714D01*
X140692914Y-47285714D02*
X140883390Y-47333333D01*
X140883390Y-47333333D02*
X141026247Y-47333333D01*
X141026247Y-47333333D02*
X141216723Y-47285714D01*
X141216723Y-47285714D02*
X141311961Y-47238095D01*
X141311961Y-47238095D02*
X141407200Y-47142857D01*
X141407200Y-47142857D02*
X141454819Y-47000000D01*
X141454819Y-47000000D02*
X141454819Y-46761905D01*
X141454819Y-48285714D02*
X141454819Y-47714286D01*
X141454819Y-48000000D02*
X140454819Y-48000000D01*
X140454819Y-48000000D02*
X140597676Y-47904762D01*
X140597676Y-47904762D02*
X140692914Y-47809524D01*
X140692914Y-47809524D02*
X140740533Y-47714286D01*
X133695582Y-57169081D02*
X133628239Y-57303768D01*
X133628239Y-57303768D02*
X133459880Y-57472126D01*
X133459880Y-57472126D02*
X133358865Y-57505798D01*
X133358865Y-57505798D02*
X133291521Y-57505798D01*
X133291521Y-57505798D02*
X133190506Y-57472126D01*
X133190506Y-57472126D02*
X133123162Y-57404783D01*
X133123162Y-57404783D02*
X133089491Y-57303768D01*
X133089491Y-57303768D02*
X133089491Y-57236424D01*
X133089491Y-57236424D02*
X133123162Y-57135409D01*
X133123162Y-57135409D02*
X133224178Y-56967050D01*
X133224178Y-56967050D02*
X133257849Y-56866035D01*
X133257849Y-56866035D02*
X133257849Y-56798691D01*
X133257849Y-56798691D02*
X133224178Y-56697676D01*
X133224178Y-56697676D02*
X133156834Y-56630333D01*
X133156834Y-56630333D02*
X133055819Y-56596661D01*
X133055819Y-56596661D02*
X132988475Y-56596661D01*
X132988475Y-56596661D02*
X132887460Y-56630333D01*
X132887460Y-56630333D02*
X132719101Y-56798691D01*
X132719101Y-56798691D02*
X132651758Y-56933378D01*
X132382384Y-57135409D02*
X132921132Y-58010875D01*
X132921132Y-58010875D02*
X132281368Y-57640485D01*
X132281368Y-57640485D02*
X132651758Y-58280249D01*
X132651758Y-58280249D02*
X131776292Y-57741501D01*
X131607934Y-58044546D02*
X131540590Y-58044546D01*
X131540590Y-58044546D02*
X131439575Y-58078218D01*
X131439575Y-58078218D02*
X131271216Y-58246577D01*
X131271216Y-58246577D02*
X131237544Y-58347592D01*
X131237544Y-58347592D02*
X131237544Y-58414935D01*
X131237544Y-58414935D02*
X131271216Y-58515951D01*
X131271216Y-58515951D02*
X131338560Y-58583294D01*
X131338560Y-58583294D02*
X131473247Y-58650638D01*
X131473247Y-58650638D02*
X132281369Y-58650638D01*
X132281369Y-58650638D02*
X131843636Y-59088370D01*
X121666666Y-34799580D02*
X121714285Y-34847200D01*
X121714285Y-34847200D02*
X121857142Y-34894819D01*
X121857142Y-34894819D02*
X121952380Y-34894819D01*
X121952380Y-34894819D02*
X122095237Y-34847200D01*
X122095237Y-34847200D02*
X122190475Y-34751961D01*
X122190475Y-34751961D02*
X122238094Y-34656723D01*
X122238094Y-34656723D02*
X122285713Y-34466247D01*
X122285713Y-34466247D02*
X122285713Y-34323390D01*
X122285713Y-34323390D02*
X122238094Y-34132914D01*
X122238094Y-34132914D02*
X122190475Y-34037676D01*
X122190475Y-34037676D02*
X122095237Y-33942438D01*
X122095237Y-33942438D02*
X121952380Y-33894819D01*
X121952380Y-33894819D02*
X121857142Y-33894819D01*
X121857142Y-33894819D02*
X121714285Y-33942438D01*
X121714285Y-33942438D02*
X121666666Y-33990057D01*
X121285713Y-33990057D02*
X121238094Y-33942438D01*
X121238094Y-33942438D02*
X121142856Y-33894819D01*
X121142856Y-33894819D02*
X120904761Y-33894819D01*
X120904761Y-33894819D02*
X120809523Y-33942438D01*
X120809523Y-33942438D02*
X120761904Y-33990057D01*
X120761904Y-33990057D02*
X120714285Y-34085295D01*
X120714285Y-34085295D02*
X120714285Y-34180533D01*
X120714285Y-34180533D02*
X120761904Y-34323390D01*
X120761904Y-34323390D02*
X121333332Y-34894819D01*
X121333332Y-34894819D02*
X120714285Y-34894819D01*
X122642857Y-33359580D02*
X122690476Y-33407200D01*
X122690476Y-33407200D02*
X122833333Y-33454819D01*
X122833333Y-33454819D02*
X122928571Y-33454819D01*
X122928571Y-33454819D02*
X123071428Y-33407200D01*
X123071428Y-33407200D02*
X123166666Y-33311961D01*
X123166666Y-33311961D02*
X123214285Y-33216723D01*
X123214285Y-33216723D02*
X123261904Y-33026247D01*
X123261904Y-33026247D02*
X123261904Y-32883390D01*
X123261904Y-32883390D02*
X123214285Y-32692914D01*
X123214285Y-32692914D02*
X123166666Y-32597676D01*
X123166666Y-32597676D02*
X123071428Y-32502438D01*
X123071428Y-32502438D02*
X122928571Y-32454819D01*
X122928571Y-32454819D02*
X122833333Y-32454819D01*
X122833333Y-32454819D02*
X122690476Y-32502438D01*
X122690476Y-32502438D02*
X122642857Y-32550057D01*
X122261904Y-32550057D02*
X122214285Y-32502438D01*
X122214285Y-32502438D02*
X122119047Y-32454819D01*
X122119047Y-32454819D02*
X121880952Y-32454819D01*
X121880952Y-32454819D02*
X121785714Y-32502438D01*
X121785714Y-32502438D02*
X121738095Y-32550057D01*
X121738095Y-32550057D02*
X121690476Y-32645295D01*
X121690476Y-32645295D02*
X121690476Y-32740533D01*
X121690476Y-32740533D02*
X121738095Y-32883390D01*
X121738095Y-32883390D02*
X122309523Y-33454819D01*
X122309523Y-33454819D02*
X121690476Y-33454819D01*
X121357142Y-32454819D02*
X120738095Y-32454819D01*
X120738095Y-32454819D02*
X121071428Y-32835771D01*
X121071428Y-32835771D02*
X120928571Y-32835771D01*
X120928571Y-32835771D02*
X120833333Y-32883390D01*
X120833333Y-32883390D02*
X120785714Y-32931009D01*
X120785714Y-32931009D02*
X120738095Y-33026247D01*
X120738095Y-33026247D02*
X120738095Y-33264342D01*
X120738095Y-33264342D02*
X120785714Y-33359580D01*
X120785714Y-33359580D02*
X120833333Y-33407200D01*
X120833333Y-33407200D02*
X120928571Y-33454819D01*
X120928571Y-33454819D02*
X121214285Y-33454819D01*
X121214285Y-33454819D02*
X121309523Y-33407200D01*
X121309523Y-33407200D02*
X121357142Y-33359580D01*
X135642857Y-44924819D02*
X135976190Y-44448628D01*
X136214285Y-44924819D02*
X136214285Y-43924819D01*
X136214285Y-43924819D02*
X135833333Y-43924819D01*
X135833333Y-43924819D02*
X135738095Y-43972438D01*
X135738095Y-43972438D02*
X135690476Y-44020057D01*
X135690476Y-44020057D02*
X135642857Y-44115295D01*
X135642857Y-44115295D02*
X135642857Y-44258152D01*
X135642857Y-44258152D02*
X135690476Y-44353390D01*
X135690476Y-44353390D02*
X135738095Y-44401009D01*
X135738095Y-44401009D02*
X135833333Y-44448628D01*
X135833333Y-44448628D02*
X136214285Y-44448628D01*
X134690476Y-44924819D02*
X135261904Y-44924819D01*
X134976190Y-44924819D02*
X134976190Y-43924819D01*
X134976190Y-43924819D02*
X135071428Y-44067676D01*
X135071428Y-44067676D02*
X135166666Y-44162914D01*
X135166666Y-44162914D02*
X135261904Y-44210533D01*
X134309523Y-44020057D02*
X134261904Y-43972438D01*
X134261904Y-43972438D02*
X134166666Y-43924819D01*
X134166666Y-43924819D02*
X133928571Y-43924819D01*
X133928571Y-43924819D02*
X133833333Y-43972438D01*
X133833333Y-43972438D02*
X133785714Y-44020057D01*
X133785714Y-44020057D02*
X133738095Y-44115295D01*
X133738095Y-44115295D02*
X133738095Y-44210533D01*
X133738095Y-44210533D02*
X133785714Y-44353390D01*
X133785714Y-44353390D02*
X134357142Y-44924819D01*
X134357142Y-44924819D02*
X133738095Y-44924819D01*
X124942857Y-38859580D02*
X124990476Y-38907200D01*
X124990476Y-38907200D02*
X125133333Y-38954819D01*
X125133333Y-38954819D02*
X125228571Y-38954819D01*
X125228571Y-38954819D02*
X125371428Y-38907200D01*
X125371428Y-38907200D02*
X125466666Y-38811961D01*
X125466666Y-38811961D02*
X125514285Y-38716723D01*
X125514285Y-38716723D02*
X125561904Y-38526247D01*
X125561904Y-38526247D02*
X125561904Y-38383390D01*
X125561904Y-38383390D02*
X125514285Y-38192914D01*
X125514285Y-38192914D02*
X125466666Y-38097676D01*
X125466666Y-38097676D02*
X125371428Y-38002438D01*
X125371428Y-38002438D02*
X125228571Y-37954819D01*
X125228571Y-37954819D02*
X125133333Y-37954819D01*
X125133333Y-37954819D02*
X124990476Y-38002438D01*
X124990476Y-38002438D02*
X124942857Y-38050057D01*
X124561904Y-38050057D02*
X124514285Y-38002438D01*
X124514285Y-38002438D02*
X124419047Y-37954819D01*
X124419047Y-37954819D02*
X124180952Y-37954819D01*
X124180952Y-37954819D02*
X124085714Y-38002438D01*
X124085714Y-38002438D02*
X124038095Y-38050057D01*
X124038095Y-38050057D02*
X123990476Y-38145295D01*
X123990476Y-38145295D02*
X123990476Y-38240533D01*
X123990476Y-38240533D02*
X124038095Y-38383390D01*
X124038095Y-38383390D02*
X124609523Y-38954819D01*
X124609523Y-38954819D02*
X123990476Y-38954819D01*
X123133333Y-38288152D02*
X123133333Y-38954819D01*
X123371428Y-37907200D02*
X123609523Y-38621485D01*
X123609523Y-38621485D02*
X122990476Y-38621485D01*
X138476190Y-36478628D02*
X138476190Y-36954819D01*
X138809523Y-35954819D02*
X138476190Y-36478628D01*
X138476190Y-36478628D02*
X138142857Y-35954819D01*
X137904761Y-35954819D02*
X137285714Y-35954819D01*
X137285714Y-35954819D02*
X137619047Y-36335771D01*
X137619047Y-36335771D02*
X137476190Y-36335771D01*
X137476190Y-36335771D02*
X137380952Y-36383390D01*
X137380952Y-36383390D02*
X137333333Y-36431009D01*
X137333333Y-36431009D02*
X137285714Y-36526247D01*
X137285714Y-36526247D02*
X137285714Y-36764342D01*
X137285714Y-36764342D02*
X137333333Y-36859580D01*
X137333333Y-36859580D02*
X137380952Y-36907200D01*
X137380952Y-36907200D02*
X137476190Y-36954819D01*
X137476190Y-36954819D02*
X137761904Y-36954819D01*
X137761904Y-36954819D02*
X137857142Y-36907200D01*
X137857142Y-36907200D02*
X137904761Y-36859580D01*
X128233332Y-52807200D02*
X128090475Y-52854819D01*
X128090475Y-52854819D02*
X127852380Y-52854819D01*
X127852380Y-52854819D02*
X127757142Y-52807200D01*
X127757142Y-52807200D02*
X127709523Y-52759580D01*
X127709523Y-52759580D02*
X127661904Y-52664342D01*
X127661904Y-52664342D02*
X127661904Y-52569104D01*
X127661904Y-52569104D02*
X127709523Y-52473866D01*
X127709523Y-52473866D02*
X127757142Y-52426247D01*
X127757142Y-52426247D02*
X127852380Y-52378628D01*
X127852380Y-52378628D02*
X128042856Y-52331009D01*
X128042856Y-52331009D02*
X128138094Y-52283390D01*
X128138094Y-52283390D02*
X128185713Y-52235771D01*
X128185713Y-52235771D02*
X128233332Y-52140533D01*
X128233332Y-52140533D02*
X128233332Y-52045295D01*
X128233332Y-52045295D02*
X128185713Y-51950057D01*
X128185713Y-51950057D02*
X128138094Y-51902438D01*
X128138094Y-51902438D02*
X128042856Y-51854819D01*
X128042856Y-51854819D02*
X127804761Y-51854819D01*
X127804761Y-51854819D02*
X127661904Y-51902438D01*
X127328570Y-51854819D02*
X127090475Y-52854819D01*
X127090475Y-52854819D02*
X126899999Y-52140533D01*
X126899999Y-52140533D02*
X126709523Y-52854819D01*
X126709523Y-52854819D02*
X126471428Y-51854819D01*
X125566666Y-52854819D02*
X126138094Y-52854819D01*
X125852380Y-52854819D02*
X125852380Y-51854819D01*
X125852380Y-51854819D02*
X125947618Y-51997676D01*
X125947618Y-51997676D02*
X126042856Y-52092914D01*
X126042856Y-52092914D02*
X126138094Y-52140533D01*
X127699580Y-43357142D02*
X127747200Y-43309523D01*
X127747200Y-43309523D02*
X127794819Y-43166666D01*
X127794819Y-43166666D02*
X127794819Y-43071428D01*
X127794819Y-43071428D02*
X127747200Y-42928571D01*
X127747200Y-42928571D02*
X127651961Y-42833333D01*
X127651961Y-42833333D02*
X127556723Y-42785714D01*
X127556723Y-42785714D02*
X127366247Y-42738095D01*
X127366247Y-42738095D02*
X127223390Y-42738095D01*
X127223390Y-42738095D02*
X127032914Y-42785714D01*
X127032914Y-42785714D02*
X126937676Y-42833333D01*
X126937676Y-42833333D02*
X126842438Y-42928571D01*
X126842438Y-42928571D02*
X126794819Y-43071428D01*
X126794819Y-43071428D02*
X126794819Y-43166666D01*
X126794819Y-43166666D02*
X126842438Y-43309523D01*
X126842438Y-43309523D02*
X126890057Y-43357142D01*
X126890057Y-43738095D02*
X126842438Y-43785714D01*
X126842438Y-43785714D02*
X126794819Y-43880952D01*
X126794819Y-43880952D02*
X126794819Y-44119047D01*
X126794819Y-44119047D02*
X126842438Y-44214285D01*
X126842438Y-44214285D02*
X126890057Y-44261904D01*
X126890057Y-44261904D02*
X126985295Y-44309523D01*
X126985295Y-44309523D02*
X127080533Y-44309523D01*
X127080533Y-44309523D02*
X127223390Y-44261904D01*
X127223390Y-44261904D02*
X127794819Y-43690476D01*
X127794819Y-43690476D02*
X127794819Y-44309523D01*
X126890057Y-44690476D02*
X126842438Y-44738095D01*
X126842438Y-44738095D02*
X126794819Y-44833333D01*
X126794819Y-44833333D02*
X126794819Y-45071428D01*
X126794819Y-45071428D02*
X126842438Y-45166666D01*
X126842438Y-45166666D02*
X126890057Y-45214285D01*
X126890057Y-45214285D02*
X126985295Y-45261904D01*
X126985295Y-45261904D02*
X127080533Y-45261904D01*
X127080533Y-45261904D02*
X127223390Y-45214285D01*
X127223390Y-45214285D02*
X127794819Y-44642857D01*
X127794819Y-44642857D02*
X127794819Y-45261904D01*
X130761904Y-33554819D02*
X130761904Y-34364342D01*
X130761904Y-34364342D02*
X130714285Y-34459580D01*
X130714285Y-34459580D02*
X130666666Y-34507200D01*
X130666666Y-34507200D02*
X130571428Y-34554819D01*
X130571428Y-34554819D02*
X130380952Y-34554819D01*
X130380952Y-34554819D02*
X130285714Y-34507200D01*
X130285714Y-34507200D02*
X130238095Y-34459580D01*
X130238095Y-34459580D02*
X130190476Y-34364342D01*
X130190476Y-34364342D02*
X130190476Y-33554819D01*
X129571428Y-33983390D02*
X129666666Y-33935771D01*
X129666666Y-33935771D02*
X129714285Y-33888152D01*
X129714285Y-33888152D02*
X129761904Y-33792914D01*
X129761904Y-33792914D02*
X129761904Y-33745295D01*
X129761904Y-33745295D02*
X129714285Y-33650057D01*
X129714285Y-33650057D02*
X129666666Y-33602438D01*
X129666666Y-33602438D02*
X129571428Y-33554819D01*
X129571428Y-33554819D02*
X129380952Y-33554819D01*
X129380952Y-33554819D02*
X129285714Y-33602438D01*
X129285714Y-33602438D02*
X129238095Y-33650057D01*
X129238095Y-33650057D02*
X129190476Y-33745295D01*
X129190476Y-33745295D02*
X129190476Y-33792914D01*
X129190476Y-33792914D02*
X129238095Y-33888152D01*
X129238095Y-33888152D02*
X129285714Y-33935771D01*
X129285714Y-33935771D02*
X129380952Y-33983390D01*
X129380952Y-33983390D02*
X129571428Y-33983390D01*
X129571428Y-33983390D02*
X129666666Y-34031009D01*
X129666666Y-34031009D02*
X129714285Y-34078628D01*
X129714285Y-34078628D02*
X129761904Y-34173866D01*
X129761904Y-34173866D02*
X129761904Y-34364342D01*
X129761904Y-34364342D02*
X129714285Y-34459580D01*
X129714285Y-34459580D02*
X129666666Y-34507200D01*
X129666666Y-34507200D02*
X129571428Y-34554819D01*
X129571428Y-34554819D02*
X129380952Y-34554819D01*
X129380952Y-34554819D02*
X129285714Y-34507200D01*
X129285714Y-34507200D02*
X129238095Y-34459580D01*
X129238095Y-34459580D02*
X129190476Y-34364342D01*
X129190476Y-34364342D02*
X129190476Y-34173866D01*
X129190476Y-34173866D02*
X129238095Y-34078628D01*
X129238095Y-34078628D02*
X129285714Y-34031009D01*
X129285714Y-34031009D02*
X129380952Y-33983390D01*
D11*
%TO.C,R13*%
X121467621Y-35980000D02*
X121132379Y-35980000D01*
X121467621Y-35220000D02*
X121132379Y-35220000D01*
%TO.C,J1*%
X115910000Y-53345000D02*
X113420000Y-53345000D01*
X118350000Y-51200000D02*
X118350000Y-50400000D01*
X117900000Y-50800000D02*
X118350000Y-51200000D01*
X118350000Y-50400000D02*
X117900000Y-50800000D01*
X115910000Y-45655000D02*
X113420000Y-45655000D01*
%TO.C,D5*%
X118350000Y-54390000D02*
X118350000Y-57050000D01*
X116650000Y-54390000D02*
X118350000Y-54390000D01*
X116650000Y-54390000D02*
X116650000Y-57050000D01*
%TO.C,C1*%
X135384165Y-34340000D02*
X135615835Y-34340000D01*
X135384165Y-35060000D02*
X135615835Y-35060000D01*
%TO.C,D1*%
X136850000Y-51010000D02*
X136850000Y-45500000D01*
X140150000Y-51010000D02*
X136850000Y-51010000D01*
X140150000Y-51010000D02*
X140150000Y-45500000D01*
%TO.C,SW2*%
X129494992Y-56834007D02*
X130909205Y-58248220D01*
X130909205Y-58248220D02*
X132889104Y-56268321D01*
X131474891Y-54854108D02*
X129494992Y-56834007D01*
X132889104Y-56268321D02*
X131474891Y-54854108D01*
%TO.C,C2*%
X124615835Y-35960000D02*
X124384165Y-35960000D01*
X124615835Y-35240000D02*
X124384165Y-35240000D01*
%TO.C,C23*%
X124446267Y-34710000D02*
X124153733Y-34710000D01*
X124446267Y-33690000D02*
X124153733Y-33690000D01*
%TO.C,R12*%
X134832379Y-42920000D02*
X135167621Y-42920000D01*
X134832379Y-43680000D02*
X135167621Y-43680000D01*
%TO.C,C24*%
X124446267Y-37410000D02*
X124153733Y-37410000D01*
X124446267Y-36390000D02*
X124153733Y-36390000D01*
%TO.C,Y3*%
X136850000Y-37950000D02*
X134150000Y-37950000D01*
X136850000Y-35650000D02*
X136850000Y-37950000D01*
%TO.C,SW1*%
X131400000Y-53500000D02*
X131400000Y-51500000D01*
X131400000Y-51500000D02*
X128600000Y-51500000D01*
X128600000Y-53500000D02*
X131400000Y-53500000D01*
X128600000Y-51500000D02*
X128600000Y-53500000D01*
%TO.C,C22*%
X128860000Y-43884165D02*
X128860000Y-44115835D01*
X128140000Y-43884165D02*
X128140000Y-44115835D01*
%TO.C,U8*%
X132210000Y-42460000D02*
X132210000Y-42185000D01*
X132210000Y-32815000D02*
X133500000Y-32815000D01*
X132210000Y-32540000D02*
X132210000Y-32815000D01*
X129900000Y-42460000D02*
X132210000Y-42460000D01*
X129900000Y-42460000D02*
X127590000Y-42460000D01*
X129900000Y-32540000D02*
X132210000Y-32540000D01*
X129900000Y-32540000D02*
X127590000Y-32540000D01*
X127590000Y-42460000D02*
X127590000Y-42185000D01*
X127590000Y-32540000D02*
X127590000Y-32815000D01*
%TD*%
%LPC*%
D12*
%TO.C,H2*%
X140000000Y-40000000D03*
%TD*%
%TO.C,H4*%
X120000000Y-60000000D03*
%TD*%
%TO.C,H1*%
X120000000Y-40000000D03*
%TD*%
%TO.C,H3*%
X140000000Y-60000000D03*
%TD*%
D13*
%TO.C,R13*%
X121897500Y-35600000D03*
X120702500Y-35600000D03*
%TD*%
D14*
%TO.C,TP30*%
X129500000Y-48000000D03*
%TD*%
%TO.C,TP5*%
X146000000Y-48500000D03*
%TD*%
D15*
%TO.C,J1*%
X116710000Y-51500000D03*
X116710000Y-47500000D03*
D16*
X117035000Y-50800000D03*
X117035000Y-50150000D03*
X117035000Y-49500000D03*
X117035000Y-48850000D03*
X117035000Y-48200000D03*
D17*
X116910000Y-52600000D03*
D18*
X114360000Y-52325000D03*
D19*
X114360000Y-50700000D03*
X114360000Y-48300000D03*
D20*
X114360000Y-46675000D03*
D21*
X116910000Y-46400000D03*
%TD*%
D22*
%TO.C,D5*%
X117500000Y-54900000D03*
X117500000Y-57100000D03*
%TD*%
D14*
%TO.C,TP4*%
X146000000Y-42500000D03*
%TD*%
%TO.C,TP6*%
X146000000Y-54500000D03*
%TD*%
%TO.C,TP3*%
X146000000Y-45500000D03*
%TD*%
D23*
%TO.C,C1*%
X134932500Y-34700000D03*
X136067500Y-34700000D03*
%TD*%
D14*
%TO.C,TP25*%
X132500000Y-48000000D03*
%TD*%
D24*
%TO.C,D1*%
X138500000Y-49500000D03*
X138500000Y-45500000D03*
%TD*%
D14*
%TO.C,TP32*%
X114000000Y-37500000D03*
%TD*%
D25*
%TO.C,SW2*%
X130732429Y-57010783D03*
X131651667Y-56091545D03*
%TD*%
D26*
%TO.C,C2*%
X125067500Y-35600000D03*
X123932500Y-35600000D03*
%TD*%
D14*
%TO.C,TP29*%
X126500000Y-48000000D03*
%TD*%
%TO.C,TP18*%
X146000000Y-39500000D03*
%TD*%
D27*
%TO.C,C23*%
X125162500Y-34200000D03*
X123437500Y-34200000D03*
%TD*%
D28*
%TO.C,R12*%
X134402500Y-43300000D03*
X135597500Y-43300000D03*
%TD*%
D27*
%TO.C,C24*%
X125162500Y-36900000D03*
X123437500Y-36900000D03*
%TD*%
D29*
%TO.C,Y3*%
X136200000Y-37350000D03*
X134800000Y-37350000D03*
X134800000Y-36250000D03*
X136200000Y-36250000D03*
%TD*%
D30*
%TO.C,SW1*%
X130650000Y-52500000D03*
X129350000Y-52500000D03*
%TD*%
D14*
%TO.C,TP31*%
X114000000Y-40500000D03*
%TD*%
D31*
%TO.C,C22*%
X128500000Y-43432500D03*
X128500000Y-44567500D03*
%TD*%
D14*
%TO.C,TP22*%
X146000000Y-51500000D03*
%TD*%
D32*
%TO.C,U8*%
X132762500Y-33275000D03*
X132762500Y-33925000D03*
X132762500Y-34575000D03*
X132762500Y-35225000D03*
X132762500Y-35875000D03*
X132762500Y-36525000D03*
X132762500Y-37175000D03*
X132762500Y-37825000D03*
X132762500Y-38475000D03*
X132762500Y-39125000D03*
X132762500Y-39775000D03*
X132762500Y-40425000D03*
X132762500Y-41075000D03*
X132762500Y-41725000D03*
X127037500Y-41725000D03*
X127037500Y-41075000D03*
X127037500Y-40425000D03*
X127037500Y-39775000D03*
X127037500Y-39125000D03*
X127037500Y-38475000D03*
X127037500Y-37825000D03*
X127037500Y-37175000D03*
X127037500Y-36525000D03*
X127037500Y-35875000D03*
X127037500Y-35225000D03*
X127037500Y-34575000D03*
X127037500Y-33925000D03*
X127037500Y-33275000D03*
%TD*%
%LPD*%
M02*
